<svg width="24" height="24" viewBox="0 0 24 24" fill="none" xmlns="http://www.w3.org/2000/svg">
<path d="M16.2773 3.13336C16.6497 3.12012 17.0376 3.14517 17.4106 3.1351C18.3381 3.11006 19.2188 3.03783 19.827 3.89087C19.9693 4.09036 20.0808 4.32689 20.1258 4.57249C20.1793 5.0293 20.1636 5.51389 20.1645 5.97743L20.1618 8.19609L20.1675 10.4535C20.167 10.8049 20.1679 11.1608 20.1615 11.5123C20.1593 11.5724 20.147 11.7322 20.0966 11.7691C19.9583 11.8706 19.5497 11.8719 19.4641 11.685C19.4402 11.6328 19.4238 11.5048 19.4236 11.4491C19.4216 10.8898 19.4247 10.3307 19.4234 9.77141L19.4229 6.10036C19.4243 5.62788 19.4534 5.09697 19.3977 4.62669C19.3838 4.50958 19.2413 4.30765 19.1565 4.21855C18.8922 3.9405 18.5236 3.8805 18.1572 3.88997C17.1919 3.89076 16.2276 3.89371 15.2631 3.8929L7.83705 3.89248L4.23854 3.89134L3.18593 3.89171C2.73118 3.89161 2.16021 3.83621 1.79955 4.17855C1.48961 4.47274 1.47812 4.71337 1.47681 5.11798L1.4819 12.5229L1.48093 14.8487C1.48087 15.272 1.46962 15.7215 1.50259 16.1422C1.5225 16.3815 1.57772 16.494 1.74169 16.6619C2.05137 16.979 2.38779 16.9886 2.80357 16.9843C3.09652 16.9813 3.396 16.985 3.6898 16.9844L6.1758 16.9829L14.7788 16.9831C15.0853 16.9814 15.4968 16.9713 15.7962 16.9924C15.8476 17.1736 15.9705 17.315 16.0485 17.4937C15.9609 17.6666 15.9184 17.7166 15.7132 17.7299C15.4855 17.7448 15.2564 17.7386 15.0283 17.7378L13.9253 17.7357C13.6355 17.7349 13.3456 17.7357 13.0558 17.7379C12.8793 17.7392 12.653 17.748 12.4813 17.7305C12.5016 17.952 12.4964 18.4377 12.4958 18.679C12.4948 19.1582 12.5084 19.7177 12.4795 20.1915C12.6795 20.1739 13.0348 20.1799 13.2439 20.1794C13.6698 20.1782 14.0957 20.1791 14.5216 20.1821C14.7426 20.1846 15.1223 20.1515 15.273 20.3108C15.3433 20.3856 15.3795 20.4862 15.3732 20.5886C15.3484 21.0611 14.6768 20.9431 14.3422 20.9424L12.9289 20.9365L9.26429 20.9367L6.78134 20.9358C6.4198 20.9365 6.00748 20.9434 5.64696 20.9402C5.0237 20.9347 5.12914 20.2254 5.52743 20.201C6.14264 20.1632 6.80179 20.1937 7.42157 20.1809C7.59361 20.1774 7.83138 20.1735 8.00084 20.1958C7.98245 19.5503 7.99411 18.9042 7.9857 18.2584C7.98355 18.0931 7.98323 17.906 8.00029 17.7424C7.61713 17.7498 7.18754 17.7369 6.79889 17.7371C5.88448 17.7419 4.97004 17.7413 4.05562 17.7352C3.49305 17.7324 2.63487 17.7896 2.09411 17.6881C1.28743 17.5366 0.712562 16.7541 0.713571 15.9306C0.715166 14.6294 0.702709 13.3103 0.707032 11.9991L0.710446 8.01538C0.714257 7.32993 0.714266 6.64445 0.710473 5.959C0.708927 5.67568 0.693114 4.93468 0.731373 4.68735C0.785919 4.31873 0.955778 3.97684 1.2166 3.7107C1.90971 2.99618 2.71934 3.139 3.62071 3.14099L6.08223 3.14061L13.5343 3.13573C14.4499 3.1334 15.36 3.14868 16.2773 3.13336ZM8.74671 20.1815C8.96975 20.1797 11.7051 20.1904 11.7252 20.1726C11.72 19.6726 11.7327 19.1609 11.7303 18.6596C11.7294 18.4694 11.7218 17.9057 11.7508 17.7386L9.78868 17.7393C9.57818 17.7394 8.93504 17.7514 8.74975 17.7262C8.76946 18.4537 8.75429 19.1926 8.75345 19.9208C8.75336 20.0051 8.75323 20.0979 8.74671 20.1815Z" fill="black"/>
<path d="M19.6012 12.4514C19.7985 12.4309 20.6498 12.4174 20.8248 12.5109C21.0109 12.6103 21.0607 13.0655 21.1137 13.2891C21.2294 13.3474 21.3601 13.3876 21.4835 13.4291C21.6178 13.333 22.0619 13.0201 22.21 13.1047C22.5585 13.304 22.976 13.7723 23.2016 14.103C23.31 14.2617 22.9805 14.7282 22.91 14.9186C22.9489 15.0148 22.9939 15.1017 23.0403 15.1943C23.6584 15.3762 23.8717 15.275 23.8571 16.0759C23.8396 17.0397 23.9748 17.058 23.0296 17.3026C22.9791 17.4037 22.9337 17.5535 22.8969 17.6642C23.4155 18.2525 23.2898 18.4318 22.7846 18.9253C22.1778 19.518 22.2082 19.5358 21.4782 19.1078C21.4139 19.146 21.1866 19.2183 21.1705 19.2333C20.9032 19.4824 21.148 19.9767 20.661 20.055C20.4396 20.0805 19.5419 20.1115 19.345 19.9864C19.2012 19.8949 19.1325 19.4234 19.0984 19.2407C18.9691 19.2122 18.821 19.1617 18.6969 19.1161C18.4957 19.2228 18.09 19.5066 17.8807 19.3552C17.5891 19.1442 17.0388 18.6407 16.9374 18.3033C17.0006 18.0329 17.1273 17.8886 17.2936 17.6659C17.2358 17.5472 17.195 17.4228 17.1635 17.2949C16.3812 17.1314 16.3231 17.1201 16.3353 16.3031C16.3478 15.4589 16.2962 15.3917 17.1374 15.2138L17.2713 14.9238C17.0923 14.465 16.7162 14.3072 17.1783 13.8374C17.4168 13.595 17.6892 13.2168 18.0171 13.1015C18.1734 13.0466 18.5742 13.3259 18.7159 13.4107C18.8453 13.3694 18.9523 13.3268 19.0785 13.2756C19.1242 13.0726 19.1566 12.7657 19.2766 12.6016C19.3664 12.479 19.4635 12.4704 19.6012 12.4514ZM18.7025 14.1416C18.523 14.071 18.2587 13.9595 18.1175 13.8219C17.9962 13.9421 17.7823 14.1454 17.6838 14.2691C17.8025 14.4582 17.9428 14.6621 18.0146 14.8718C17.9657 15.0388 17.7214 15.6383 17.6272 15.7698C17.438 15.8391 17.2176 15.9268 17.0198 15.9511C17.0227 16.1214 17.0366 16.4299 17.0148 16.5882C17.232 16.5987 17.4085 16.6568 17.6131 16.7294C17.7291 16.846 17.9792 17.4825 18.0216 17.6471C17.9646 17.8222 17.7836 18.0719 17.6899 18.2624C17.8216 18.3814 17.9905 18.549 18.1071 18.6861C18.298 18.5351 18.4687 18.4019 18.705 18.3342C19.2912 18.642 19.7566 18.5918 19.7903 19.3667C20.0041 19.3627 20.2085 19.3737 20.4212 19.3757C20.4517 19.2168 20.5053 18.8141 20.6371 18.7433C20.8626 18.6223 21.2869 18.4222 21.5234 18.3435C21.7575 18.4389 21.8853 18.5252 22.0819 18.6882C22.1796 18.5798 22.4717 18.3411 22.4905 18.253C22.4687 18.0625 22.1737 17.7792 22.1735 17.6528C22.1734 17.5555 22.4991 16.8837 22.5609 16.7718C22.6166 16.6704 23.046 16.5935 23.1628 16.579C23.1564 16.3553 23.1537 16.1652 23.1617 15.9418C22.9505 15.9037 22.7362 15.8463 22.5509 15.7348C22.4459 15.5713 22.3869 15.3461 22.3066 15.1672C22.273 15.0927 22.1505 14.9095 22.1735 14.8366C22.2409 14.6246 22.4292 14.4654 22.5205 14.2582C22.4025 14.1466 22.1528 13.933 22.0614 13.8202C21.8621 13.9723 21.7191 14.064 21.4817 14.1386C21.1837 14.0564 20.8828 13.8933 20.5909 13.7964C20.4659 13.6088 20.4401 13.3459 20.4059 13.1247C20.2476 13.1269 19.9276 13.1396 19.785 13.121C19.7492 13.3504 19.6925 13.678 19.4894 13.8083C19.3148 13.9204 18.8975 14.0926 18.7025 14.1416Z" fill="black"/>
<path d="M19.907 14.8074C20.7024 14.6855 21.4467 15.2291 21.5726 16.0238C21.6983 16.8185 21.1583 17.5655 20.3642 17.6952C19.5645 17.8258 18.8113 17.2812 18.6847 16.4809C18.5579 15.6807 19.1063 14.9301 19.907 14.8074ZM20.1697 16.9934C20.576 16.9702 20.8865 16.622 20.8631 16.2157C20.8397 15.8095 20.4915 15.4991 20.0853 15.5226C19.6792 15.5461 19.369 15.8942 19.3922 16.3003C19.4156 16.7063 19.7637 17.0166 20.1697 16.9934Z" fill="black"/>
<path d="M15.9189 5.94925C16.4304 5.91913 17.0002 6.23363 17.1349 6.7265C17.4295 7.80429 16.4222 8.61017 15.4302 8.12718C15.1146 8.33972 14.8336 8.64181 14.5447 8.89084C14.0988 9.27536 13.6576 9.68727 13.2011 10.0563C13.2404 10.1725 13.2622 10.2921 13.2552 10.4144C13.1694 11.9319 11.0521 11.9337 11.134 10.2708C10.919 10.1964 10.3316 9.9009 10.1364 9.78C10.0146 9.91115 9.85838 10.0396 9.6933 10.1108C9.41737 10.2297 9.06785 10.2331 8.78867 10.1228C8.71715 10.0945 8.61978 10.0222 8.5489 10.0098C8.44751 9.99213 6.37671 11.7805 6.01433 11.9811C6.17217 12.823 5.70122 13.5714 4.80017 13.5645C3.99874 13.4992 3.43187 12.702 3.75049 11.9323C3.92472 11.5113 4.31876 11.2147 4.7729 11.1785C5.10705 11.152 5.3384 11.2775 5.63596 11.4083C6.17874 10.9216 6.80454 10.4768 7.37108 10.0135C7.61958 9.81027 7.87747 9.61938 8.11003 9.39652C7.99319 8.92129 8.11006 8.42252 8.49829 8.10345C8.73524 7.9069 9.04096 7.81324 9.34735 7.84334C10.0249 7.91186 10.4767 8.52781 10.4019 9.1982C10.6851 9.31636 11.1584 9.53854 11.4147 9.70208C11.8329 9.2865 12.2756 9.2729 12.7841 9.53843C12.8539 9.46283 12.9356 9.39379 13.0128 9.32543C13.6048 8.80156 14.1873 8.26615 14.7803 7.74377C14.8322 7.69808 14.9152 7.65554 14.9776 7.62449C14.9651 7.58622 14.9541 7.54749 14.9446 7.50838C14.7515 6.71642 15.1334 6.13768 15.9189 5.94925ZM4.91976 12.8615C5.09894 12.837 5.25101 12.7179 5.31772 12.5498C5.38444 12.3817 5.35546 12.1907 5.24187 12.05C5.12829 11.9093 4.94772 11.8406 4.76935 11.8704C4.49908 11.9154 4.31506 12.1692 4.35617 12.4401C4.39729 12.711 4.64829 12.8986 4.91976 12.8615ZM16.141 7.61627C16.8115 7.31175 16.5254 6.55047 15.9316 6.62954C15.3014 6.80102 15.5585 7.67958 16.141 7.61627ZM9.25838 9.49897C9.52608 9.47949 9.72771 9.24731 9.70947 8.97952C9.69122 8.71174 9.45997 8.50904 9.1921 8.52604C8.92247 8.54317 8.71817 8.77625 8.73653 9.04579C8.7549 9.31534 8.98892 9.51858 9.25838 9.49897ZM12.2508 10.8855C12.393 10.8385 12.4846 10.7848 12.5576 10.6436C12.6116 10.5402 12.6208 10.4193 12.5829 10.309C12.508 10.0859 12.343 10.0165 12.1365 9.96349C11.5677 10.2154 11.7249 10.9372 12.2508 10.8855Z" fill="black"/>
<path d="M15.5475 9.89928C15.7913 9.88582 16.5516 9.88232 16.7852 9.91659C16.825 9.94242 16.8617 9.97269 16.8947 10.0068C16.9966 10.1114 17.0255 10.2248 17.0314 10.3671C17.0426 10.6389 17.0386 10.9114 17.0385 11.1834C17.0401 11.7846 17.0379 12.3859 17.0321 12.9871C16.9683 13.096 16.5224 13.5455 16.4013 13.4673C16.2954 13.2023 16.3401 11.0469 16.3556 10.5674C16.1884 10.5709 15.9541 10.5715 15.7915 10.5458C15.7847 10.9275 15.807 11.3209 15.8032 11.7066L15.8033 13.2892C15.8058 13.6214 15.7995 13.9446 15.8229 14.2762C15.8694 14.2945 15.9162 14.3119 15.9633 14.3286C16.0567 14.4434 15.8929 14.8115 15.799 14.8988C15.7174 14.9747 15.4242 14.9511 15.3081 14.9495C14.7838 14.9384 14.2603 14.9613 13.736 14.9634C13.6055 14.9639 13.4172 14.9531 13.3165 14.864C13.1561 14.5447 13.2783 12.7406 13.2412 12.302C13.2358 11.5467 13.6881 11.8028 14.1122 11.7533C15.2096 11.6253 14.8443 12.2642 14.8825 13.0447C14.8996 13.3948 14.9175 13.9305 14.892 14.3229C15.0114 14.321 15.0676 14.3248 15.1861 14.3398C15.1541 13.8739 15.213 13.3755 15.1992 12.9004C15.1744 12.0459 15.1671 11.1805 15.1862 10.3257C15.193 10.024 15.2556 9.93576 15.5475 9.89928ZM13.8049 14.3043L14.3022 14.3133C14.2758 14.1052 14.3089 13.6157 14.3045 13.3803C14.2987 13.0665 14.2727 12.6454 14.2973 12.3425C14.1642 12.3493 13.9379 12.3533 13.8082 12.3353C13.8475 12.7314 13.8047 13.2025 13.8026 13.6065C13.8017 13.7813 13.8267 14.1576 13.8049 14.3043Z" fill="black"/>
<path d="M11.482 12.7159C11.7649 12.6958 12.6156 12.6518 12.8406 12.7994C12.8821 12.8267 12.9084 12.9181 12.9198 12.9635C12.9721 13.171 12.9876 14.6732 12.8938 14.8094C12.8312 14.9004 12.7219 14.9186 12.6215 14.9418C12.298 14.9589 11.7182 14.9872 11.4001 14.9215C11.3591 14.913 11.2685 14.8409 11.2311 14.8114C11.1386 14.5649 11.1424 13.2799 11.2138 12.9569C11.2371 12.8515 11.3831 12.7625 11.482 12.7159ZM11.8087 14.3014C11.9527 14.2834 12.1774 14.2856 12.3223 14.3015C12.3 14.0885 12.2993 13.559 12.3109 13.3399C12.1874 13.3439 11.9309 13.3527 11.8157 13.3255C11.8217 13.5476 11.8358 14.0991 11.8087 14.3014Z" fill="black"/>
</svg>
