<svg width="24" height="24" viewBox="0 0 24 24" fill="none" xmlns="http://www.w3.org/2000/svg">
<path d="M13.4013 18.6211C12.9769 18.7643 12.3242 18.907 11.8685 18.9705C10.6468 19.141 9.37407 18.9517 8.21117 18.5595C7.82256 18.4236 7.451 18.22 7.08538 18.0389C6.155 17.5782 5.37125 16.914 4.75161 16.0806C4.598 15.874 4.38071 15.6577 4.24473 15.4395C2.82557 13.1625 2.5753 10.2969 3.725 7.85071C3.90688 7.46338 4.03105 7.12431 4.29838 6.77045C4.81689 6.08413 5.3503 5.41652 6.00025 4.84767C7.23463 3.80744 8.7662 3.27499 10.349 3.04224C11.5844 2.86056 13.2024 3.29413 14.3369 3.78616C14.7884 4.02719 15.4172 4.38009 15.8049 4.70988C17.2778 5.96296 18.4929 7.88971 18.7544 9.81775C18.8067 10.3977 18.8626 10.8151 18.8359 11.4069C18.8232 11.6885 18.707 12.2683 18.7068 12.4867C18.5325 13.343 18.3201 14.0786 17.8522 14.8245C17.5506 15.3052 17.2949 15.739 16.9385 16.1895C17.4449 16.7279 17.9676 17.2356 18.4685 17.7675C18.2018 18.3202 17.9229 18.62 17.3563 18.8866C17.3096 18.8355 17.2594 18.7811 17.2095 18.7333C16.7336 18.2779 16.3193 17.7314 15.8364 17.2867C15.5342 17.4393 15.2926 17.6532 15.0137 17.8343C14.6548 18.0674 14.197 18.3296 13.8052 18.4984C13.6884 18.5341 13.5153 18.5932 13.4013 18.6211ZM11.3055 17.4144C14.8218 17.2137 17.5114 14.2033 17.3163 10.6867C17.1212 7.17002 14.115 4.47567 10.5981 4.66525C7.07326 4.85526 4.3716 7.86956 4.56716 11.3941C4.76272 14.9186 7.78129 17.6155 11.3055 17.4144Z" fill="#FFFFFF"/>
<path d="M18.4685 17.7675C18.8345 18.1702 19.2059 18.5739 19.5829 18.9658C19.886 19.2845 20.2452 19.5541 20.5277 19.8905C20.6079 19.9862 20.6449 20.244 20.6459 20.3707C20.6504 20.9578 19.8783 21.3849 19.4178 20.9834C19.0256 20.6414 18.7127 20.2283 18.3447 19.8607C18.0539 19.5683 17.6545 19.2433 17.4001 18.9416C17.3851 18.9236 17.3705 18.9053 17.3563 18.8866C17.9229 18.62 18.2018 18.3202 18.4685 17.7675Z" fill="#FFFFFF"/>
</svg>
