<svg width="18" height="18" viewBox="0 0 18 18" fill="none" xmlns="http://www.w3.org/2000/svg">
<rect width="18" height="18" rx="9" fill="#3158E8"/>
<path d="M7.90376 11.0785L12.9856 4.73864C13.0814 4.6064 13.2053 4.52813 13.3573 4.50382C13.5093 4.47952 13.6515 4.51526 13.7837 4.61104C13.916 4.70682 13.9946 4.83318 14.0197 4.99014C14.0448 5.14709 14.0094 5.29149 13.9136 5.42335L8.49875 12.2403C8.40297 12.3726 8.27908 12.4508 8.12706 12.4752C7.97505 12.4995 7.83293 12.4637 7.70069 12.3679L4.85756 10.3087C4.72532 10.2129 4.64897 10.0863 4.62849 9.92904C4.60802 9.77174 4.64583 9.62675 4.74193 9.49407C4.83803 9.36139 4.9644 9.28272 5.12103 9.25807C5.27766 9.23341 5.42207 9.26879 5.55425 9.36419L7.90376 11.0785Z" fill="#FDFDFF"/>
</svg>
