<svg width="176" height="95" viewBox="0 0 176 95" fill="none" xmlns="http://www.w3.org/2000/svg">
<path d="M20.0955 71.0462C11.3227 73.4464 6.22071 85.8985 1 93.468H174.898V3C166.77 3 164.487 6.10905 159.479 11.4651C153.058 18.3342 144.626 29.7905 135.65 30.222C128.708 30.5556 123.285 22.2801 115.702 26.5832C112.739 28.2645 109.96 34.9968 104.479 41.3677C98.5143 48.3012 92.8482 56.2122 81.3308 53.6707C75.8025 52.4509 70.7911 46.7767 61.7989 50.8973C55.2688 53.8897 43.2101 79.7095 34.2405 77.6565C30.3457 76.765 26.2969 69.3495 20.0955 71.0462Z" fill="url(#paint0_linear_70_730)"/>
<path d="M1 93.468C6.22071 85.8985 11.3227 73.4464 20.0955 71.0462C26.2969 69.3495 30.3457 76.765 34.2405 77.6565C43.2101 79.7095 55.2688 53.8897 61.7989 50.8973C70.7911 46.7767 75.8025 52.4509 81.3308 53.6707C92.8482 56.2122 98.5143 48.3012 104.479 41.3677C109.96 34.9968 112.739 28.2645 115.702 26.5832C123.285 22.2801 128.708 30.5556 135.65 30.222C144.626 29.7905 153.058 18.3342 159.479 11.4651C164.487 6.10905 166.77 3 174.898 3" stroke="#3158E8" stroke-width="1.88536" stroke-linecap="round"/>
<defs>
<linearGradient id="paint0_linear_70_730" x1="87.9492" y1="93.468" x2="87.9492" y2="3" gradientUnits="userSpaceOnUse">
<stop stop-color="#FCFDFE"/>
<stop offset="1" stop-color="#F2F5FD"/>
</linearGradient>
</defs>
</svg>
