<svg width="45" height="45" viewBox="0 0 45 45" fill="none" xmlns="http://www.w3.org/2000/svg">
<path d="M15.666 8.08713C19.7518 7.73939 23.3416 10.7797 23.6713 14.8671C24.0009 18.9544 20.9446 22.5307 16.8559 22.8422C12.7927 23.1517 9.24361 20.1187 8.91608 16.0569C8.58851 11.9952 11.6057 8.43269 15.666 8.08713ZM16.713 21.1622C19.8563 20.9368 22.2216 18.2058 21.9961 15.0626C21.7706 11.9194 19.0396 9.5541 15.8964 9.77967C12.7533 10.0052 10.3881 12.7361 10.6136 15.8792C10.8391 19.0224 13.5699 21.3876 16.713 21.1622Z" fill="#05070A"/>
<path d="M27.3023 8.00372C29.3702 7.9469 31.1027 8.53802 32.6355 9.95606C34.0621 11.2647 34.9109 13.0862 34.9954 15.0203C35.0783 17.083 34.3371 19.094 32.9353 20.6095C32.4149 21.1671 31.6853 21.6795 31.0279 22.0765C30.0445 22.6704 28.7375 22.9118 27.6024 22.953C27.0689 22.9479 26.7705 22.6431 26.6959 22.1454C26.5439 21.1312 27.7813 21.1959 28.3881 21.1269C29.9175 20.9552 31.17 20.0664 32.1255 18.8947C33.4762 17.2384 33.7546 15.0521 32.8924 13.1158C32.1066 11.3857 30.5137 10.1582 28.6404 9.83937C27.9808 9.73207 26.9934 9.94546 26.7256 9.23673C26.6337 8.9908 26.6447 8.71818 26.7562 8.48047C26.8765 8.22296 27.0432 8.09638 27.3023 8.00372Z" fill="#05070A"/>
<path d="M12.0396 26.478C12.2798 26.465 12.5269 26.4599 12.7691 26.4639C14.336 26.4895 15.9214 26.3968 17.4833 26.4923C17.6798 26.5043 17.9479 26.7193 18.0503 26.8852C18.172 27.0859 18.2099 27.3264 18.1558 27.5548C17.9555 28.3992 16.3922 28.2096 15.7108 28.1991C14.9771 28.1869 14.2432 28.1833 13.5094 28.1884C13.0068 28.1904 12.5169 28.2039 12.0151 28.2195C9.11613 28.3092 6.45714 30.508 5.78765 33.327C5.39129 34.3436 5.88995 36.8669 5.40146 37.4713C5.28215 37.6163 5.10848 37.7058 4.9212 37.7189C4.74128 37.733 4.3968 37.6078 4.27215 37.4815C3.87527 37.0796 4.03553 36.0367 4.01574 35.5118C3.95581 33.9217 4.20193 32.375 4.99341 30.982C5.29128 30.4578 5.52617 29.9342 5.96238 29.4925C7.67344 27.6086 9.49616 26.624 12.0396 26.478Z" fill="#05070A"/>
<path d="M31.2395 26.4698C32.4104 26.4151 33.7514 26.6675 34.8108 27.1743C36.8649 28.1669 38.4448 29.9294 39.2078 32.0794C39.363 32.523 39.4534 32.9826 39.5125 33.4481C39.6046 34.1728 39.7138 36.7824 39.446 37.3199C39.3407 37.5313 39.2003 37.6118 38.9832 37.6868C38.5979 37.7156 38.0507 37.6421 37.9813 37.2172C37.6782 35.3618 38.2168 33.7262 37.3364 31.9246C36.4679 30.0592 34.7585 28.707 32.7379 28.3141C32.3125 28.2314 31.4494 28.2742 31.1465 28.1646C30.9665 28.0977 30.8207 27.9617 30.7414 27.7869C30.5066 27.2814 30.7259 26.6999 31.2395 26.4698Z" fill="#05070A"/>
<path d="M20.7536 26.4773C22.4506 26.5122 24.0866 27.1162 25.3992 28.1923C27.0194 29.4979 28.293 31.4223 28.4486 33.5411C28.5273 34.6113 28.5442 35.9078 28.4723 36.9874C28.4415 37.4511 28.1551 37.6685 27.7053 37.712C27.2836 37.6424 26.9892 37.4766 26.9273 37.0184C26.7826 35.9484 26.9339 34.833 26.8234 33.7582C26.5626 31.3202 24.6523 29.1174 22.2976 28.4584C21.7074 28.2932 20.525 28.3504 20.1264 28.0147C19.9598 27.8748 19.8571 27.6735 19.8415 27.4565C19.823 27.2073 19.907 26.9612 20.074 26.7753C20.2934 26.5284 20.4501 26.4987 20.7536 26.4773Z" fill="#05070A"/>
</svg>
