<svg width="45" height="45" viewBox="0 0 45 45" fill="none" xmlns="http://www.w3.org/2000/svg">
<path d="M30.7254 5.65242C31.4643 5.59443 32.5959 5.64766 33.3696 5.64002C34.5055 5.6288 35.6667 5.65437 36.8056 5.63756C37.2018 5.63075 37.5741 5.72197 37.8648 5.99196C38.5108 6.59215 38.3535 7.50946 38.356 8.34165L38.3603 10.9358L38.3596 31.4333L38.3517 35.4847C38.3499 36.1291 38.3707 36.8877 38.3434 37.5208C39.1025 37.5299 39.8858 37.4514 40.6338 37.559C41.0426 37.6178 41.2489 37.9977 41.25 38.3721C41.2529 39.516 40.4249 39.3646 39.5696 39.372C37.4081 39.3129 35.091 39.3315 32.9227 39.3379L31.0562 39.3479C30.701 39.35 30.1949 39.3661 29.8492 39.3237C29.658 39.3012 29.4779 39.2241 29.3317 39.1019C29.0222 38.8406 28.9055 38.3871 28.8891 38.0015C28.8529 37.1505 28.8759 36.2905 28.8791 35.4389L28.8712 31.6512L28.9094 11.1024C28.9166 10.0244 28.9175 8.93975 28.927 7.86193C28.9385 6.5637 29.2253 5.72771 30.7254 5.65242ZM30.7921 37.5315C31.9285 37.4954 33.1479 37.5287 34.2906 37.5143C34.7318 37.5088 36.0507 37.4892 36.432 37.5515C36.3793 37.212 36.4006 36.5864 36.4021 36.226L36.4046 34.1404C36.397 31.1919 36.4072 28.2433 36.4351 25.2949L36.4398 9.45199C36.4399 8.85729 36.4143 7.98826 36.4576 7.40587C35.3047 7.49413 33.8416 7.39841 32.6607 7.43568C32.4271 7.44305 31.003 7.43406 30.8239 7.39118C30.8668 7.98424 30.8343 8.83534 30.8305 9.45672L30.8232 24.2799L30.806 33.129C30.8089 34.1471 30.8048 35.1652 30.794 36.1833C30.7924 36.5389 30.8222 37.2176 30.7921 37.5315Z" fill="#05070A"/>
<path d="M22.3525 15.3336C22.657 15.3309 23.0161 15.329 23.3128 15.326C25.1357 15.3078 26.2056 15.1585 26.196 17.3518C26.1906 18.5929 26.1941 19.987 26.1954 21.2503L26.1925 35.4723C26.1913 36.4212 26.228 37.361 26.1629 38.3094C26.0923 39.3385 25.3556 39.3559 24.4974 39.3487C24.1752 39.346 23.838 39.3463 23.5154 39.3451L20.4816 39.3452C19.8033 39.3443 19.1249 39.3527 18.4468 39.3702C18.26 39.3734 18.0894 39.3734 17.9033 39.3634C16.8262 39.3056 16.6347 38.4343 16.6341 37.5493C16.6327 35.5522 16.6371 33.5528 16.6435 31.5545C16.6265 28.7906 16.6332 26.0266 16.6635 23.2629C16.6652 21.8952 16.6747 20.5275 16.6918 19.1599C16.6942 18.4585 16.6547 17.7146 16.7209 17.0188C16.7596 16.5022 17.2675 15.5707 17.8038 15.4394C18.398 15.2939 19.3675 15.3419 19.9968 15.3431C20.782 15.3477 21.5673 15.3445 22.3525 15.3336ZM18.576 17.1459C18.6132 21.4762 18.5387 25.8718 18.5322 30.2115L18.5184 35.0309C18.5187 35.7072 18.5648 36.8954 18.5164 37.5256L21.2911 37.5219C22.3025 37.5192 23.3229 37.51 24.3334 37.5191C24.2687 37.2135 24.3016 35.474 24.3031 35.0833L24.3201 21.4993L24.3115 18.8891C24.3085 18.3715 24.2864 17.5985 24.3425 17.0975C23.8458 17.1903 22.3228 17.1102 21.7286 17.1224C20.86 17.1471 19.4154 17.1895 18.576 17.1459Z" fill="#05070A"/>
<path d="M5.96267 24.5484C7.43161 24.514 8.90923 24.5491 10.3792 24.5491C11.2637 24.5742 12.2059 24.4912 13.08 24.5823C14.2515 24.7045 14.0557 26.4584 14.0516 27.2571L14.0446 29.8148L14.066 37.7961C14.0641 39.3821 13.4172 39.3986 12.0189 39.3594C11.3847 39.3417 10.6934 39.3453 10.055 39.342L4.95794 39.3401C4.51379 39.3398 2.40229 39.4751 2.20294 39.1488C0.936471 37.0757 3.6674 37.5646 4.81018 37.5117C4.84428 37.4482 4.82005 36.2119 4.82001 36.0418L4.82102 29.3538L4.81421 27.26C4.81158 26.2922 4.66256 24.8082 5.96267 24.5484ZM6.6901 37.5277C8.05403 37.4946 9.41853 37.4878 10.7827 37.5075C11.2175 37.5139 11.8348 37.5011 12.2522 37.5318C12.1695 37.1965 12.1984 36.2328 12.2004 35.8406L12.2096 33.19L12.2028 28.9004C12.1976 28.1311 12.1468 27.0472 12.205 26.3119C11.1143 26.381 9.77366 26.2976 8.66344 26.3315C8.37552 26.3403 6.88414 26.357 6.66731 26.3261C6.70948 26.7738 6.69669 27.4249 6.70001 27.8851L6.69302 31.225L6.69857 35.2065C6.70055 35.9357 6.72363 36.8099 6.6901 37.5277Z" fill="#05070A"/>
</svg>
