<svg width="144" height="65" viewBox="0 0 144 65" fill="none" xmlns="http://www.w3.org/2000/svg">
<path d="M1 64C5.14299 59.0634 9.19178 50.9426 16.1536 49.3773C21.0748 48.2708 25.3416 56.4015 28.5 56.4015C40 56.4015 30.818 29.3 36 27.3485C43.1359 24.6612 54.5 43.8864 66 43.8864C75.326 43.8864 82 36.2879 83.1176 30.0221C84.1708 24.1168 84.6489 19.5056 87 18.4091C93.0174 15.6027 102.345 22.9708 107.853 22.7532C114.977 22.4718 121.668 15.0004 126.764 10.5206C130.738 7.02761 132.55 5 139 5" stroke="#3158E8" stroke-width="1.88536" stroke-linecap="round"/>
<rect x="134" width="10" height="10" rx="5" fill="#3158E8"/>
<circle cx="139" cy="5" r="3" fill="white"/>
</svg>
