<svg width="45" height="50" viewBox="0 0 45 50" fill="none" xmlns="http://www.w3.org/2000/svg">
<path d="M25.7089 9.63306C26.129 9.59057 26.4696 9.64885 26.8222 9.89746C27.4262 10.3233 27.3178 10.9869 27.1685 11.5991C26.9527 12.4841 26.6464 13.316 26.4236 14.1995L23.7444 24.7558L21.4748 33.5104C21.2122 34.5206 21.0028 35.5463 20.731 36.5533C20.6575 36.8259 20.4992 37.2713 20.3303 37.4958C20.1166 37.7798 19.8648 37.8081 19.543 37.8475C19.0261 37.9031 18.5557 37.7929 18.2349 37.3477C18.1299 37.2021 17.9325 36.7905 17.9674 36.6033C18.1493 35.4239 18.5874 34.2364 18.8113 33.073C19.1102 31.5206 19.6433 30.0939 20.0302 28.5773L22.4939 18.9808C23.0953 16.5531 23.6508 14.0975 24.3542 11.6975C24.6011 10.8552 24.716 9.86401 25.7089 9.63306Z" fill="#05070A"/>
<path d="M34.8478 14.6234C35.5636 14.6271 35.9142 15.2163 36.3908 15.6508C37.994 17.1114 39.3929 18.7757 40.9621 20.2758C41.6758 20.9578 42.4671 21.6807 43.1252 22.4135C43.1252 22.4135 43.0352 22.3687 42.9826 22.5531C43.052 22.7237 43.2175 22.8132 43.3566 22.6595C44.1289 23.434 44.7141 24.1372 43.8918 25.2924C43.6169 25.6781 43.1497 26.0614 42.8254 26.4242C42.072 27.2677 41.2321 28.0225 40.4084 28.7943C39.9087 29.2621 39.4128 29.8077 38.9562 30.3207C38.2927 31.0664 37.5678 31.719 36.8332 32.392C36.2963 32.8739 35.5215 33.8908 34.758 33.9213C34.0204 33.8996 33.3583 33.4083 33.3664 32.6342C33.3757 31.7427 33.9279 31.563 34.4504 30.9906C35.4201 29.9279 36.4428 28.9213 37.5021 27.9447C37.8499 27.6242 38.1726 27.1602 38.5265 26.8324C39.5289 26.0687 40.2729 25.1616 41.1564 24.2845C41.0112 24.093 40.5456 23.612 40.3634 23.4369C40.012 23.0846 39.6809 22.6909 39.3254 22.3441C38.8424 21.8727 38.2441 21.4256 37.8029 20.9154C36.8035 19.7599 35.6427 18.794 34.6046 17.6683C33.6852 16.6714 33.1422 16.7838 33.5041 15.2064C33.8443 14.8235 34.3262 14.6153 34.8478 14.6234Z" fill="#05070A"/>
<path d="M9.50797 15.0511C10.6486 14.1629 12.0139 14.5139 11.8898 16.181C11.839 16.862 10.9538 17.5886 10.4591 18.058C9.99186 18.4981 9.52903 18.9438 9.07145 19.3939C8.76412 19.6967 8.43116 20.0116 8.13981 20.3295C6.96999 21.6056 5.72657 22.8196 4.48453 24.0248C4.38713 24.1192 4.3085 24.1887 4.22672 24.3002C4.43852 24.4622 5.12069 25.2249 5.36832 25.4799L8.06559 28.2289C8.77283 28.938 9.54095 29.5953 10.2384 30.3168C10.3498 30.432 10.4951 30.5865 10.6134 30.6898C11.3748 31.3543 12.4709 32.3299 11.6379 33.431C11.4427 33.6924 11.1483 33.8621 10.8244 33.9008C9.73412 34.0328 8.75041 32.6924 8.05192 32.0131C7.57728 31.5514 7.09952 31.0833 6.62418 30.6215C6.25752 30.2515 5.93543 29.8467 5.56168 29.4769L2.83414 26.8109C2.38234 26.3754 1.85346 25.9553 1.465 25.475C1.01409 24.8681 0.873543 23.9832 1.35465 23.3558C1.82951 22.737 2.4159 22.2664 2.90836 21.7084C3.71483 20.7943 4.62633 20.0391 5.46891 19.1879C5.82728 18.8265 6.18209 18.4614 6.53336 18.0931C6.64158 17.9783 6.99242 17.5663 7.09684 17.4935C7.25682 17.2789 7.92967 16.6429 8.15738 16.4183C8.58263 15.9989 9.0754 15.4367 9.50797 15.0511Z" fill="#05070A"/>
<path d="M43.1252 22.4135C43.2387 22.5076 43.2663 22.5416 43.3566 22.6595C43.2175 22.8132 43.052 22.7237 42.9826 22.5531C43.0352 22.3687 43.1252 22.4135 43.1252 22.4135Z" fill="#05070A"/>
</svg>
