<svg width="24" height="24" viewBox="0 0 24 24" fill="none" xmlns="http://www.w3.org/2000/svg">
<path d="M9.38574 13.2784C9.41311 12.903 9.36961 12.4731 9.37232 12.0912C9.37668 11.4121 9.3853 10.7091 9.38539 10.0328C9.38549 9.2558 9.31501 8.53382 9.84126 7.89501C10.0933 7.58908 10.3823 7.42419 10.757 7.29535C10.8796 7.25296 11.007 7.22568 11.1363 7.21415C11.4636 7.18252 11.8341 7.20898 12.1541 7.19618C13.2418 7.15266 14.1709 7.17248 14.7351 8.27578C15.049 8.88943 14.9654 9.56859 14.964 10.2521L14.9675 11.6532L14.97 17.6701C14.9698 17.8955 14.9284 19.3116 15.031 19.3596L15.0699 19.3335C15.1462 19.187 15.1064 17.8836 15.1052 17.6577L15.1076 15.4706C15.1132 13.3384 15.1265 11.2049 15.1176 9.07278C15.0918 8.11698 15.071 7.16789 15.0902 6.21109C15.1104 5.20374 14.9074 4.40609 15.7973 3.7021C16.4439 3.13551 17.1228 3.27343 17.9037 3.25369C18.8587 3.22243 19.6725 3.19527 20.3166 4.02921C20.7774 4.62572 20.696 5.34002 20.6956 6.05235L20.696 7.72593L20.7013 13.0041L20.6987 17.2901L20.6974 18.5676C20.6973 18.78 20.7068 19.1165 20.6838 19.3206C21.1483 19.3194 21.9727 19.2328 21.9996 19.9037C22.0053 20.0783 21.9403 20.2477 21.8192 20.3735C21.6855 20.511 21.5068 20.5648 21.3199 20.5647C20.8788 20.5643 20.4375 20.5573 19.9964 20.557C19.0884 20.5638 18.1803 20.5645 17.2723 20.5589L10.1881 20.5584L5.29035 20.5598L3.86382 20.5653C3.60081 20.5668 3.29676 20.561 3.03914 20.5608C2.4255 20.5605 2.21205 19.9014 2.60075 19.4965C2.82507 19.2629 3.45699 19.3331 3.77853 19.3385C3.77381 19.3085 3.77016 19.2783 3.76757 19.248C3.74426 18.9896 3.75572 18.5517 3.75706 18.2819L3.76989 16.4569L3.76483 14.233C3.76632 13.4766 3.67404 12.6562 4.19355 12.0471C4.8668 11.2577 5.63473 11.3057 6.57632 11.3231C7.38237 11.3379 7.90877 11.2112 8.57658 11.7741C8.98927 12.1228 9.24484 12.6224 9.28604 13.161C9.3048 13.2413 9.31873 19.4217 9.38574 19.4217C9.45275 19.4217 9.38574 13.2784 9.38574 13.2784ZM16.3261 19.3363C16.5641 19.3161 16.9263 19.3221 17.1737 19.3215L18.529 19.3218L19.4364 19.3251C19.3949 19.0394 19.4184 18.429 19.4201 18.1099L19.4223 15.9897L19.4176 7.88906L19.4217 6.05356C19.4241 5.70799 19.4355 5.35715 19.4117 5.01292C19.396 4.89988 19.3356 4.78872 19.2711 4.69751C19.0765 4.4223 18.6774 4.44042 18.3724 4.44484C18.0136 4.45005 17.6398 4.4362 17.2809 4.4488C16.9973 4.45456 16.728 4.45504 16.5101 4.67275C16.3084 4.87434 16.3449 5.13787 16.3424 5.39812C16.3406 5.59648 16.3424 5.79649 16.3423 5.99546L16.3393 8.01749L16.3393 15.81C16.3392 16.4235 16.3392 17.0389 16.3367 17.6523C16.3346 18.1629 16.3804 18.8365 16.3261 19.3363ZM10.6458 19.3283C11.2119 19.3041 11.9329 19.3147 12.5069 19.3194C12.9289 19.3213 13.3583 19.3269 13.7795 19.3229C13.7399 19.0225 13.7526 18.5873 13.7525 18.2727L13.7538 16.5951L13.7529 11.1199L13.7544 9.75546C13.7557 9.36878 13.8251 8.8224 13.4807 8.56736C13.1501 8.32242 12.3647 8.40064 11.956 8.40787C11.4047 8.41183 10.7832 8.29747 10.6869 9.03973C10.6473 9.34436 10.6584 9.64334 10.6584 9.9496L10.6601 11.2856C10.6751 13.2636 10.6774 15.2416 10.6668 17.2197L10.6613 18.5671C10.661 18.7694 10.6708 19.1449 10.6458 19.3283ZM4.96758 19.3242L7.04662 19.322C7.33623 19.3216 7.79319 19.3064 8.07221 19.3245C8.03486 19.1189 8.04259 18.8048 8.04254 18.5892L8.04543 17.5391L8.04219 14.3259C8.0423 13.9205 8.09514 13.4641 8.01801 13.0726C7.97293 12.8437 7.69472 12.5901 7.45949 12.5698C7.25358 12.5521 7.06301 12.5496 6.85768 12.5491C6.5445 12.5476 6.2313 12.5486 5.91813 12.5521C5.64156 12.5612 5.39378 12.5546 5.18807 12.7769C5.09746 12.8748 5.02179 12.9983 5.01065 13.1319C4.97568 13.5511 4.9877 14.0422 4.98719 14.464L4.97706 17.5319C4.97968 17.9534 4.99478 18.377 4.98498 18.7987C4.98163 18.9423 4.98763 19.1902 4.96758 19.3242Z" fill="#05070A"/>
</svg>
