<svg width="181" height="71" viewBox="0 0 181 71" fill="none" xmlns="http://www.w3.org/2000/svg">
<g clip-path="url(#clip0_769_3466)">
<rect x="2" y="68" width="6" height="3" fill="#E3E7EC"/>
<rect x="11" y="66" width="6" height="5" fill="#E3E7EC"/>
<rect x="20" y="64" width="6" height="7" fill="#E3E7EC"/>
<rect x="29" y="62" width="6" height="9" fill="#E3E7EC"/>
<rect x="38" y="60" width="6" height="11" fill="#E3E7EC"/>
<rect x="47" y="58" width="6" height="13" fill="#E3E7EC"/>
<rect x="56" y="56" width="6" height="15" fill="#E3E7EC"/>
<rect x="65" y="53" width="6" height="18" fill="#E3E7EC"/>
<rect x="74" y="50" width="6" height="21" fill="#E3E7EC"/>
<rect x="83" y="47" width="6" height="24" fill="#E3E7EC"/>
<rect x="92" y="43" width="6" height="28" fill="#E3E7EC"/>
<rect x="101" y="39" width="6" height="32" fill="#E3E7EC"/>
<rect x="110" y="34" width="6" height="37" fill="#E3E7EC"/>
<rect x="119" y="30" width="6" height="41" fill="#E3E7EC"/>
<rect x="128" y="26" width="6" height="45" fill="#E3E7EC"/>
<rect x="137" y="22" width="6" height="49" fill="#E3E7EC"/>
<rect x="146" y="17" width="6" height="54" fill="#E3E7EC"/>
<rect x="155" y="13" width="6" height="58" fill="#E3E7EC"/>
<rect x="164" y="9" width="6" height="62" fill="#E3E7EC"/>
<rect x="173" y="5" width="6" height="66" fill="#E3E7EC"/>
</g>
<defs>
<clipPath id="clip0_769_3466">
<rect width="181" height="71" fill="white"/>
</clipPath>
</defs>
</svg>
