<svg width="184" height="73" viewBox="0 0 184 73" fill="none" xmlns="http://www.w3.org/2000/svg">
<path d="M21.3567 56.3053C12.2078 57.9718 6.88705 66.6172 1.4425 71.8726H182.797V9.06128C174.32 9.06128 171.939 11.2199 166.717 14.9385C160.019 19.7077 151.226 27.6618 141.865 27.9613C134.626 28.193 128.97 22.4473 121.062 25.435C117.972 26.6023 115.074 31.2764 109.358 35.6997C103.138 40.5136 97.2287 46.0062 85.2175 44.2417C79.4522 43.3947 74.2258 39.4552 64.8481 42.3161C58.0381 44.3937 45.4623 62.3202 36.1082 60.8948C32.0464 60.2759 27.824 55.1274 21.3567 56.3053Z" fill="url(#paint0_linear_17_282)"/>
<path d="M1.4425 71.8726C6.88705 66.6172 12.2078 57.9718 21.3567 56.3053C27.824 55.1274 32.0464 60.2759 36.1082 60.8948C45.4623 62.3202 58.0381 44.3937 64.8481 42.3161C74.2258 39.4552 79.4522 43.3947 85.2175 44.2417C97.2287 46.0062 103.138 40.5136 109.358 35.6997C115.074 31.2764 117.972 26.6023 121.062 25.435C128.97 22.4473 134.626 28.193 141.865 27.9613C151.226 27.6618 160.019 19.7077 166.717 14.9385C171.939 11.2199 174.32 9.06128 182.797 9.06128" stroke="#3158E8" stroke-width="2.05939" stroke-linecap="round"/>
<rect x="170" y="2" width="14" height="14" rx="7" fill="#3158E8"/>
<circle cx="177" cy="9" r="3.5" fill="white"/>
<defs>
<linearGradient id="paint0_linear_17_282" x1="92.1196" y1="71.8726" x2="92.1196" y2="9.06128" gradientUnits="userSpaceOnUse">
<stop stop-color="#FCFDFE"/>
<stop offset="1" stop-color="#F2F5FD"/>
</linearGradient>
</defs>
</svg>
