<svg width="24" height="24" viewBox="0 0 24 24" fill="none" xmlns="http://www.w3.org/2000/svg">
<path d="M8.98902 8.295C9.02928 8.24763 9.0789 8.18137 9.11351 8.13025C9.46557 7.58135 9.94257 7.16447 10.3627 6.68341C10.7841 6.20083 11.1451 5.89617 11.6455 5.50251C12.8161 4.56541 14.1782 3.89686 15.6356 3.5441C16.1242 3.42534 16.7893 3.29768 17.2892 3.22225C17.5645 3.18152 17.8426 3.16336 18.1209 3.16793C18.6055 3.17854 19.8958 3.33262 20.2967 3.60414C20.6678 3.85542 20.6873 4.86586 20.7502 5.34279C20.7703 5.78789 20.7976 6.45229 20.7438 6.89386C20.6068 8.15669 20.4279 9.27567 19.8917 10.4479C19.6803 10.9101 19.551 11.3606 19.2499 11.7972C19.0522 12.0839 18.8951 12.3835 18.6595 12.6519C18.6032 12.716 18.3334 13.0599 18.3188 13.0987L16.7454 14.7728C16.6478 14.8366 16.5006 14.9681 16.3751 15.0536C16.4854 15.9795 16.3411 17.3877 15.9137 18.263C15.3721 19.3723 14.209 20.8473 13.0229 21.3301C12.7787 21.4164 12.5413 21.3833 12.3186 21.277C11.822 21.0398 11.9824 20.6356 11.8426 20.1933C11.6276 19.5129 11.3794 18.8398 11.1563 18.155C10.9058 18.1147 10.5621 18.098 10.3899 17.8995C10.1221 17.5908 9.93598 17.2232 9.66498 16.9128C9.34562 16.5471 9.00258 16.2058 8.68126 15.8417L7.31375 14.2995C7.01408 13.9614 6.61555 13.3757 6.19923 13.1513C5.6788 12.8879 5.0893 12.6035 4.5354 12.4273C3.72741 12.1703 2.94491 12.133 3.19147 11.0276C3.22313 10.8857 3.27676 10.7859 3.34866 10.6608C4.26059 9.07326 6.04194 7.88974 7.91644 8.06716C8.26569 8.10028 8.64523 8.20727 8.98902 8.295ZM8.07214 12.7169C8.30607 12.9516 8.51956 13.2131 8.73725 13.4637C9.39873 14.2254 10.2218 14.9683 10.8525 15.7414C11.038 15.9657 11.319 16.289 11.5371 16.4807C13.7949 15.0527 15.783 14.0169 17.4311 11.8134C18.9994 9.7166 19.5284 7.46817 19.2568 4.86569C18.7124 4.80846 17.8678 4.73243 17.3215 4.79114C15.8968 4.87246 14.2483 5.48254 13.0701 6.28038C12.5725 6.61729 12.0998 7.03336 11.661 7.44239C11.4171 7.66971 11.1631 7.89157 10.941 8.14033C9.79773 9.42058 8.84783 11.1835 8.07214 12.7169ZM7.01131 11.8723C7.27641 11.2649 7.51658 10.6603 7.8267 10.0732C7.93707 9.86428 8.04202 9.63926 8.1458 9.4263C7.9388 9.42246 7.69161 9.4113 7.4889 9.4315C7.19082 9.44995 7.08723 9.50599 6.8168 9.58528C6.05509 9.80864 5.53109 10.1836 5.00105 10.7683C4.93564 10.8404 4.91405 10.873 4.9138 10.9624C5.03335 11.1194 5.72769 11.3783 5.93553 11.4504C6.36678 11.6359 6.55817 11.7311 7.01131 11.8723ZM12.3822 17.6409C12.5882 18.0203 12.851 18.6747 12.9297 19.1043C12.9598 19.2854 12.9858 19.4239 12.9896 19.6072C14.0402 18.8508 14.5739 18.2089 14.8424 16.8935C14.8681 16.7676 14.9065 16.3687 14.8707 16.2521C14.8476 16.2333 14.8427 16.2229 14.8171 16.2181C14.2479 16.5877 13.7109 16.9059 13.1125 17.2266C12.8717 17.3557 12.6236 17.5207 12.3822 17.6409Z" fill="#FFFFFF"/>
<path d="M14.6838 7.50738C15.7385 7.39221 16.6872 8.15273 16.8043 9.20716C16.9214 10.2616 16.1626 11.2117 15.1084 11.3307C14.0514 11.45 13.0983 10.6889 12.9809 9.63169C12.8635 8.57454 13.6265 7.62283 14.6838 7.50738Z" fill="#FFFFFF"/>
<path d="M5.40289 15.6333C5.8651 15.9407 5.9555 16.4867 6.29977 16.7616C6.1752 16.9201 5.96363 17.1857 5.88563 17.361C5.67413 17.8363 5.45152 18.6763 5.4988 19.1824C5.95304 19.2183 6.10658 19.1453 6.50326 19.1044C7.69332 18.9815 8.25423 18.2501 9.15327 17.606C9.32923 17.4799 9.59169 17.5709 9.72779 17.731C10.4323 18.7124 8.81073 19.6874 8.15309 20.1706C7.60332 20.5745 5.66724 21.0237 5.08482 20.6525C4.89237 20.9727 4.12841 21.46 3.78116 21.321C2.74681 20.9071 3.41195 19.854 4.05413 19.5157C3.98 19.3511 3.94133 19.1013 3.94965 18.9214C4.00569 17.709 4.53481 16.4705 5.40289 15.6333Z" fill="#FFFFFF"/>
<path d="M4.05413 19.5156C4.13919 19.5893 4.22422 19.7229 4.30489 19.8129C4.55185 20.0886 4.80917 20.3979 5.09731 20.6294L5.08482 20.6525C4.89237 20.9727 4.12841 21.46 3.78116 21.321C2.74681 20.9071 3.41195 19.8539 4.05413 19.5156Z" fill="#FFFFFF"/>
<path d="M6.15628 14.8838C6.85753 14.4004 7.51174 14.3057 7.37065 15.4481C7.33181 15.7626 6.96708 16.0389 6.74297 16.2678C6.57884 16.4387 6.45422 16.5905 6.29984 16.7616C5.95556 16.4868 5.86517 15.9407 5.40295 15.6333C5.69311 15.349 5.81552 15.1561 6.15628 14.8838Z" fill="#FFFFFF"/>
<path d="M6.15628 14.8838C6.26768 14.9629 6.69387 16.0262 6.74297 16.2678C6.57884 16.4387 6.45422 16.5905 6.29984 16.7616C5.95556 16.4868 5.86517 15.9407 5.40295 15.6334C5.69311 15.349 5.81552 15.1561 6.15628 14.8838Z" fill="#FFFFFF"/>
</svg>
