<svg width="45" height="50" viewBox="0 0 45 50" fill="none" xmlns="http://www.w3.org/2000/svg">
<path d="M6.91206 18.6871C8.13803 18.6096 9.89753 18.6703 11.1671 18.6745L18.244 18.6749L37.2021 18.6601C38.9127 18.6739 39.9618 19.2988 39.9401 21.1572C39.9227 22.6548 39.1829 23.4561 38.1819 24.4573C37.4114 25.228 36.6109 25.925 35.8244 26.6736L28.8632 33.3234C28.0961 34.0635 28.2179 34.3465 28.1978 35.416C28.1883 36.8483 28.2246 38.2792 28.2139 39.7111C28.2036 41.0903 28.3429 42.5588 27.4637 43.7256C26.2901 45.2826 24.487 45.1288 22.7479 45.1234C21.9215 45.1209 21.0589 45.1745 20.2401 45.1281C19.9508 45.1123 19.6633 45.0728 19.3806 45.0096C18.6679 44.8432 17.9739 44.4071 17.4601 43.8913C16.8409 43.2694 16.6463 42.3552 16.6308 41.5052C16.6156 40.6757 16.6256 39.8425 16.6301 39.0115L16.6381 35.9144C16.6305 33.98 16.751 34.2262 15.4004 32.8728C12.1876 29.6535 8.7578 26.6247 5.62204 23.3398C5.28999 22.992 4.98256 22.0119 4.90405 21.5411C4.89891 21.5103 4.89417 21.4795 4.88983 21.4486C4.68747 20.0057 5.44147 18.8985 6.91206 18.6871ZM27.0625 32.3567C27.4559 31.9326 27.8638 31.5943 28.2766 31.1961L30.4813 29.0501L35.2704 24.3838C36.1013 23.581 37.0996 22.7684 37.8353 21.8559C37.9991 21.6528 38.0863 21.1726 38.081 20.9036C37.8824 20.669 36.2263 20.745 35.8343 20.7471L32.6082 20.759L21.9153 20.7521L11.8464 20.7549L8.83874 20.7465C8.2759 20.7449 7.48472 20.73 6.93721 20.7757C6.86042 20.839 6.83051 20.8701 6.83066 20.9833C6.83198 21.9951 7.72157 22.6246 8.35813 23.2876C8.77835 23.7253 9.25853 24.1229 9.69349 24.5484L15.6219 30.3026C18.6193 33.2529 18.5795 32.5147 18.5874 36.9344C18.5923 37.9881 18.5919 39.0417 18.5862 40.0956C18.5849 40.7688 18.5166 41.8052 18.7973 42.4069C19.053 42.9547 19.8464 43.1724 20.4108 43.1735C21.5715 43.1764 22.749 43.1631 23.9096 43.1581C24.574 43.1552 25.2587 43.2202 25.7731 42.713C26.1476 42.3566 26.2641 41.9701 26.27 41.4628C26.283 39.7864 26.2579 38.1068 26.267 36.4299C26.2719 35.5397 26.2146 34.544 26.389 33.6801C26.4879 33.19 26.7179 32.7206 27.0625 32.3567Z" fill="black"/>
<path d="M9.60292 5.02393C12.4185 4.7486 14.3765 7.904 12.9309 10.3005C12.5409 10.9469 12.2591 11.1801 11.6591 11.609C12.4066 11.826 12.7112 11.8718 13.4236 12.3271C14.1009 12.7666 14.5763 13.4576 14.7453 14.2481C14.8608 14.7762 15.0274 15.7607 14.6986 16.2368C14.2945 16.822 13.6377 16.5481 13.1669 16.2141C13.046 15.3822 13.2864 14.4835 12.5578 13.8296C11.8663 13.209 11.1235 13.149 10.2659 13.1656C9.71308 13.1695 9.03033 13.1597 8.49149 13.224C7.67363 13.3353 6.79748 13.9524 6.57201 14.771C6.42039 15.3216 6.59932 16.4038 5.82057 16.521C5.33619 16.5938 4.84979 16.2086 4.83528 15.7098C4.81294 14.7619 5.07892 13.6504 5.70405 12.9138C6.34686 12.1565 7.10701 11.7501 8.0836 11.6655C7.71339 11.2568 7.16499 10.9286 6.89018 10.4314C5.60434 8.10513 6.91163 5.35968 9.60292 5.02393ZM10.094 10.4556C11.1364 10.3499 11.8992 9.42256 11.8036 8.37725C11.708 7.33194 10.7897 6.55893 9.74538 6.64475C8.68695 6.73173 7.90258 7.66697 7.99947 8.72646C8.0964 9.78596 9.03736 10.5628 10.094 10.4556Z" fill="black"/>
<path d="M22.2779 5.02439C23.5535 4.87326 25.1181 5.79086 25.6481 6.95626C26.2158 8.20475 26.0093 9.7743 25.1704 10.8542C25.0129 11.057 24.4219 11.4112 24.3483 11.6125C24.4543 11.6939 24.8748 11.7692 25.0311 11.8255C25.2744 11.9153 25.5107 12.0232 25.738 12.1483C27.0371 12.8799 27.4987 14.3535 27.4004 15.7757C27.3775 16.1059 27.1786 16.4278 26.8441 16.5094C26.4348 16.6092 26.139 16.411 25.8071 16.213C25.7148 15.4313 25.8811 14.4281 25.2498 13.8665C24.4368 13.1434 23.601 13.1413 22.6198 13.1505C21.8551 13.1557 20.9605 13.1119 20.273 13.5083C19.6598 13.874 19.2029 14.3609 19.1362 15.1062C19.0854 15.3881 19.124 15.9204 18.9682 16.1612C18.7029 16.5714 17.5049 16.6231 17.4345 16.0125C17.3191 15.0115 17.577 13.897 18.1364 13.0539C18.6994 12.2055 19.6559 11.8241 20.6156 11.6389C20.1819 11.1168 19.5323 10.814 19.2654 10.1266C18.3158 7.68125 19.6587 5.3284 22.2779 5.02439ZM22.7479 10.4464C23.7886 10.2943 24.5084 9.32486 24.3549 8.28253C24.2013 7.24019 23.2325 6.52053 22.1923 6.67608C21.1545 6.83126 20.4381 7.79911 20.5913 8.8391C20.7446 9.87905 21.7095 10.5983 22.7479 10.4464Z" fill="black"/>
<path d="M34.8628 5.0267C34.9578 5.02579 35.0528 5.02674 35.1477 5.02953C36.075 5.06745 36.9489 5.47471 37.5751 6.16087C38.1915 6.84058 38.5119 7.73851 38.4651 8.65565C38.4013 10.1796 37.7693 10.7309 36.7724 11.6528C38.1578 11.8882 39.105 12.4281 39.6714 13.7626C39.9663 14.4574 40.1379 15.4823 39.8578 16.1978C39.6908 16.3293 39.367 16.5093 39.1503 16.4942C37.5763 16.3845 38.8688 14.7728 37.7623 13.8706C36.8077 13.0923 36.1663 13.1611 35.0622 13.1748C34.5312 13.1931 33.8933 13.193 33.3769 13.283C32.6654 13.407 31.7079 14.2461 31.7101 14.9963C31.7139 16.2864 31.2555 16.9826 29.9639 16.1588C29.9596 16.1288 29.9556 16.0987 29.952 16.0685C29.805 14.9491 30.1155 13.8176 30.813 12.9309C31.3557 12.2379 32.327 11.763 33.1835 11.6582C32.2239 10.6461 31.7045 10.5361 31.5293 8.97616C31.2882 6.8285 32.7115 5.199 34.8628 5.0267ZM35.1233 10.4891C36.1774 10.4037 36.9631 9.47881 36.8786 8.42268C36.794 7.3666 35.8712 6.57892 34.817 6.663C33.7619 6.74714 32.9748 7.67257 33.0595 8.72954C33.1441 9.78653 34.0683 10.5745 35.1233 10.4891Z" fill="black"/>
</svg>
