<svg width="161" height="31" viewBox="0 0 161 31" fill="none" xmlns="http://www.w3.org/2000/svg">
<path d="M12 18.5C13.6569 18.5 15 17.1569 15 15.5C15 13.8431 13.6569 12.5 12 12.5C10.3431 12.5 9 13.8431 9 15.5C9 17.1569 10.3431 18.5 12 18.5Z" stroke="#0C0D0E" stroke-width="2" stroke-linecap="round" stroke-linejoin="round"/>
<path d="M3 10.5V8.5C3 7.96957 3.21071 7.46086 3.58579 7.08579C3.96086 6.71071 4.46957 6.5 5 6.5H7" stroke="#0C0D0E" stroke-width="2" stroke-linecap="round" stroke-linejoin="round"/>
<path d="M17 6.5H19C19.5304 6.5 20.0391 6.71071 20.4142 7.08579C20.7893 7.46086 21 7.96957 21 8.5V10.5" stroke="#0C0D0E" stroke-width="2" stroke-linecap="round" stroke-linejoin="round"/>
<path d="M21 20.5V22.5C21 23.0304 20.7893 23.5391 20.4142 23.9142C20.0391 24.2893 19.5304 24.5 19 24.5H17" stroke="#0C0D0E" stroke-width="2" stroke-linecap="round" stroke-linejoin="round"/>
<path d="M7 24.5H5C4.46957 24.5 3.96086 24.2893 3.58579 23.9142C3.21071 23.5391 3 23.0304 3 22.5V20.5" stroke="#0C0D0E" stroke-width="2" stroke-linecap="round" stroke-linejoin="round"/>
<path d="M35.6705 7.04545L39.8892 20.3068H40.0511L44.2784 7.04545H48.3693L42.3523 24.5H37.5966L31.571 7.04545H35.6705ZM49.202 24.5V11.4091H52.8327V24.5H49.202ZM51.0259 9.72159C50.4861 9.72159 50.023 9.54261 49.6366 9.18466C49.256 8.82102 49.0656 8.38636 49.0656 7.88068C49.0656 7.38068 49.256 6.9517 49.6366 6.59375C50.023 6.23011 50.4861 6.04829 51.0259 6.04829C51.5656 6.04829 52.0259 6.23011 52.4065 6.59375C52.7929 6.9517 52.9861 7.38068 52.9861 7.88068C52.9861 8.38636 52.7929 8.82102 52.4065 9.18466C52.0259 9.54261 51.5656 9.72159 51.0259 9.72159ZM65.4331 15.142L62.1092 15.3466C62.0524 15.0625 61.9303 14.8068 61.7428 14.5795C61.5553 14.3466 61.3081 14.1619 61.0013 14.0256C60.7001 13.8835 60.3393 13.8125 59.9189 13.8125C59.3564 13.8125 58.882 13.9318 58.4956 14.1705C58.1092 14.4034 57.9161 14.7159 57.9161 15.108C57.9161 15.4205 58.0411 15.6847 58.2911 15.9006C58.5411 16.1165 58.97 16.2898 59.578 16.4205L61.9473 16.8977C63.22 17.1591 64.1689 17.5795 64.7939 18.1591C65.4189 18.7386 65.7314 19.5 65.7314 20.4432C65.7314 21.3011 65.4786 22.054 64.9729 22.7017C64.4729 23.3494 63.7854 23.8551 62.9104 24.2188C62.0411 24.5767 61.0382 24.7557 59.9018 24.7557C58.1689 24.7557 56.7882 24.3949 55.7598 23.6733C54.7371 22.946 54.1376 21.9574 53.9615 20.7074L57.5325 20.5199C57.6405 21.0483 57.9018 21.4517 58.3166 21.7301C58.7314 22.0028 59.2626 22.1392 59.9104 22.1392C60.5467 22.1392 61.0581 22.017 61.4445 21.7727C61.8365 21.5227 62.0354 21.2017 62.0411 20.8097C62.0354 20.4801 61.8962 20.2102 61.6234 20C61.3507 19.7841 60.9303 19.6193 60.3621 19.5057L58.095 19.054C56.8166 18.7983 55.8649 18.3551 55.2399 17.7244C54.6206 17.0937 54.3109 16.2898 54.3109 15.3125C54.3109 14.4716 54.5382 13.7472 54.9928 13.1392C55.453 12.5312 56.0979 12.0625 56.9274 11.733C57.7626 11.4034 58.7399 11.2386 59.8592 11.2386C61.5126 11.2386 62.8138 11.5881 63.7626 12.2869C64.7172 12.9858 65.274 13.9375 65.4331 15.142ZM66.8176 24.5V11.4091H70.4483V24.5H66.8176ZM68.6415 9.72159C68.1017 9.72159 67.6386 9.54261 67.2523 9.18466C66.8716 8.82102 66.6813 8.38636 66.6813 7.88068C66.6813 7.38068 66.8716 6.9517 67.2523 6.59375C67.6386 6.23011 68.1017 6.04829 68.6415 6.04829C69.1813 6.04829 69.6415 6.23011 70.0222 6.59375C70.4085 6.9517 70.6017 7.38068 70.6017 7.88068C70.6017 8.38636 70.4085 8.82102 70.0222 9.18466C69.6415 9.54261 69.1813 9.72159 68.6415 9.72159ZM78.0714 24.7557C76.7476 24.7557 75.6027 24.4744 74.6368 23.9119C73.6766 23.3437 72.9351 22.554 72.4124 21.5426C71.8896 20.5256 71.6283 19.3466 71.6283 18.0057C71.6283 16.6534 71.8896 15.4716 72.4124 14.4602C72.9351 13.4432 73.6766 12.6534 74.6368 12.0909C75.6027 11.5227 76.7476 11.2386 78.0714 11.2386C79.3953 11.2386 80.5374 11.5227 81.4976 12.0909C82.4635 12.6534 83.2078 13.4432 83.7305 14.4602C84.2533 15.4716 84.5146 16.6534 84.5146 18.0057C84.5146 19.3466 84.2533 20.5256 83.7305 21.5426C83.2078 22.554 82.4635 23.3437 81.4976 23.9119C80.5374 24.4744 79.3953 24.7557 78.0714 24.7557ZM78.0885 21.9432C78.6908 21.9432 79.1936 21.7727 79.597 21.4318C80.0004 21.0852 80.3044 20.6136 80.5089 20.017C80.7192 19.4205 80.8243 18.7415 80.8243 17.9801C80.8243 17.2188 80.7192 16.5398 80.5089 15.9432C80.3044 15.3466 80.0004 14.875 79.597 14.5284C79.1936 14.1818 78.6908 14.0085 78.0885 14.0085C77.4805 14.0085 76.9692 14.1818 76.5544 14.5284C76.1453 14.875 75.8357 15.3466 75.6254 15.9432C75.4209 16.5398 75.3186 17.2188 75.3186 17.9801C75.3186 18.7415 75.4209 19.4205 75.6254 20.017C75.8357 20.6136 76.1453 21.0852 76.5544 21.4318C76.9692 21.7727 77.4805 21.9432 78.0885 21.9432ZM89.3061 16.9318V24.5H85.6754V11.4091H89.1357V13.7188H89.2891C89.5788 12.9574 90.0646 12.3551 90.7464 11.9119C91.4283 11.4631 92.255 11.2386 93.2266 11.2386C94.1357 11.2386 94.9283 11.4375 95.6044 11.8352C96.2805 12.233 96.8061 12.8011 97.1811 13.5398C97.5561 14.2727 97.7436 15.1477 97.7436 16.1648V24.5H94.1129V16.8125C94.1186 16.0114 93.9141 15.3864 93.4993 14.9375C93.0845 14.483 92.5135 14.2557 91.7862 14.2557C91.2976 14.2557 90.8658 14.3608 90.4908 14.571C90.1214 14.7812 89.8317 15.0881 89.6214 15.4915C89.4169 15.8892 89.3118 16.3693 89.3061 16.9318Z" fill="#0C0D0E"/>
<rect x="104" width="57" height="31" rx="4" fill="#0C0D0E"/>
<path d="M117.625 12.4205C117.564 11.8826 117.314 11.4659 116.875 11.1705C116.436 10.8712 115.883 10.7216 115.216 10.7216C114.739 10.7216 114.326 10.7973 113.977 10.9489C113.629 11.0966 113.358 11.3011 113.165 11.5625C112.975 11.8201 112.881 12.1136 112.881 12.4432C112.881 12.7197 112.945 12.9583 113.074 13.1591C113.206 13.3598 113.379 13.5284 113.591 13.6648C113.807 13.7973 114.038 13.9091 114.284 14C114.53 14.0871 114.767 14.1591 114.994 14.2159L116.131 14.5114C116.502 14.6023 116.883 14.7254 117.273 14.8807C117.663 15.036 118.025 15.2405 118.358 15.4943C118.691 15.7481 118.96 16.0625 119.165 16.4375C119.373 16.8125 119.477 17.2614 119.477 17.7841C119.477 18.4432 119.307 19.0284 118.966 19.5398C118.629 20.0511 118.138 20.4545 117.494 20.75C116.854 21.0455 116.08 21.1932 115.17 21.1932C114.299 21.1932 113.545 21.0549 112.909 20.7784C112.273 20.5019 111.775 20.1098 111.415 19.6023C111.055 19.0909 110.856 18.4848 110.818 17.7841H112.58C112.614 18.2045 112.75 18.5549 112.989 18.8352C113.231 19.1117 113.54 19.3182 113.915 19.4545C114.294 19.5871 114.708 19.6534 115.159 19.6534C115.655 19.6534 116.097 19.5758 116.483 19.4205C116.873 19.2614 117.18 19.0417 117.403 18.7614C117.627 18.4773 117.739 18.1458 117.739 17.767C117.739 17.4223 117.64 17.1402 117.443 16.9205C117.25 16.7008 116.987 16.5189 116.653 16.375C116.324 16.2311 115.951 16.1042 115.534 15.9943L114.159 15.6193C113.227 15.3655 112.489 14.9924 111.943 14.5C111.402 14.0076 111.131 13.3561 111.131 12.5455C111.131 11.875 111.313 11.2898 111.676 10.7898C112.04 10.2898 112.532 9.90151 113.153 9.625C113.775 9.3447 114.475 9.20455 115.256 9.20455C116.044 9.20455 116.739 9.3428 117.341 9.61932C117.947 9.89583 118.424 10.2765 118.773 10.7614C119.121 11.2424 119.303 11.7955 119.318 12.4205H117.625ZM120.639 24.2727V12.2727H122.298V13.6875H122.44C122.539 13.5057 122.681 13.2955 122.866 13.0568C123.052 12.8182 123.309 12.6098 123.639 12.4318C123.968 12.25 124.404 12.1591 124.946 12.1591C125.65 12.1591 126.279 12.3371 126.832 12.6932C127.385 13.0492 127.819 13.5625 128.133 14.233C128.451 14.9034 128.611 15.7102 128.611 16.6534C128.611 17.5966 128.453 18.4053 128.139 19.0795C127.825 19.75 127.393 20.267 126.843 20.6307C126.294 20.9905 125.667 21.1705 124.963 21.1705C124.432 21.1705 123.999 21.0814 123.662 20.9034C123.328 20.7254 123.067 20.517 122.878 20.2784C122.688 20.0398 122.542 19.8277 122.44 19.642H122.338V24.2727H120.639ZM122.304 16.6364C122.304 17.25 122.393 17.7879 122.571 18.25C122.749 18.7121 123.006 19.0739 123.343 19.3352C123.681 19.5928 124.093 19.7216 124.582 19.7216C125.09 19.7216 125.514 19.5871 125.855 19.3182C126.196 19.0455 126.453 18.6761 126.628 18.2102C126.806 17.7443 126.895 17.2197 126.895 16.6364C126.895 16.0606 126.807 15.5436 126.633 15.0852C126.463 14.6269 126.205 14.2652 125.861 14C125.52 13.7348 125.093 13.6023 124.582 13.6023C124.09 13.6023 123.673 13.7292 123.332 13.983C122.995 14.2367 122.739 14.5909 122.565 15.0455C122.391 15.5 122.304 16.0303 122.304 16.6364ZM132.254 21.1932C131.701 21.1932 131.201 21.0909 130.754 20.8864C130.307 20.678 129.953 20.3769 129.691 19.983C129.434 19.589 129.305 19.1061 129.305 18.5341C129.305 18.0417 129.4 17.6364 129.589 17.3182C129.778 17 130.034 16.7481 130.356 16.5625C130.678 16.3769 131.038 16.2367 131.436 16.142C131.833 16.0473 132.239 15.9754 132.651 15.9261C133.174 15.8655 133.598 15.8163 133.924 15.7784C134.25 15.7367 134.487 15.6705 134.634 15.5795C134.782 15.4886 134.856 15.3409 134.856 15.1364V15.0966C134.856 14.6004 134.716 14.2159 134.436 13.9432C134.159 13.6705 133.746 13.5341 133.197 13.5341C132.625 13.5341 132.174 13.661 131.845 13.9148C131.519 14.1648 131.293 14.4432 131.168 14.75L129.572 14.3864C129.761 13.8561 130.038 13.428 130.401 13.1023C130.769 12.7727 131.191 12.5341 131.668 12.3864C132.146 12.2348 132.648 12.1591 133.174 12.1591C133.523 12.1591 133.892 12.2008 134.282 12.2841C134.676 12.3636 135.043 12.5114 135.384 12.7273C135.729 12.9432 136.011 13.2519 136.231 13.6534C136.451 14.0511 136.561 14.5682 136.561 15.2045V21H134.901V19.8068H134.833C134.723 20.0265 134.559 20.2424 134.339 20.4545C134.119 20.6667 133.837 20.8428 133.492 20.983C133.148 21.1231 132.735 21.1932 132.254 21.1932ZM132.623 19.8295C133.093 19.8295 133.494 19.7367 133.828 19.5511C134.165 19.3655 134.42 19.1231 134.595 18.8239C134.773 18.5208 134.862 18.197 134.862 17.8523V16.7273C134.801 16.7879 134.684 16.8447 134.509 16.8977C134.339 16.947 134.144 16.9905 133.924 17.0284C133.704 17.0625 133.49 17.0947 133.282 17.125C133.074 17.1515 132.9 17.1742 132.759 17.1932C132.43 17.2348 132.129 17.3049 131.856 17.4034C131.587 17.5019 131.371 17.6439 131.208 17.8295C131.049 18.0114 130.97 18.2538 130.97 18.5568C130.97 18.9773 131.125 19.2955 131.436 19.5114C131.746 19.7235 132.142 19.8295 132.623 19.8295ZM141.699 21.1761C140.855 21.1761 140.127 20.9848 139.518 20.6023C138.912 20.2159 138.446 19.6837 138.12 19.0057C137.794 18.3277 137.631 17.5511 137.631 16.6761C137.631 15.7898 137.798 15.0076 138.131 14.3295C138.465 13.6477 138.934 13.1155 139.54 12.733C140.146 12.3504 140.86 12.1591 141.682 12.1591C142.345 12.1591 142.936 12.2822 143.455 12.5284C143.974 12.7708 144.393 13.1117 144.711 13.5511C145.033 13.9905 145.224 14.5038 145.285 15.0909H143.631C143.54 14.6818 143.332 14.3295 143.006 14.0341C142.684 13.7386 142.252 13.5909 141.711 13.5909C141.237 13.5909 140.823 13.7159 140.466 13.9659C140.114 14.2121 139.84 14.5644 139.643 15.0227C139.446 15.4773 139.347 16.0152 139.347 16.6364C139.347 17.2727 139.444 17.822 139.637 18.2841C139.83 18.7462 140.103 19.1042 140.455 19.358C140.811 19.6117 141.23 19.7386 141.711 19.7386C142.033 19.7386 142.324 19.6799 142.586 19.5625C142.851 19.4413 143.073 19.2689 143.251 19.0455C143.432 18.822 143.559 18.553 143.631 18.2386H145.285C145.224 18.803 145.04 19.3068 144.734 19.75C144.427 20.1932 144.016 20.5417 143.501 20.7955C142.989 21.0492 142.389 21.1761 141.699 21.1761ZM150.063 21.1761C149.203 21.1761 148.462 20.9924 147.841 20.625C147.224 20.2538 146.746 19.733 146.409 19.0625C146.076 18.3883 145.909 17.5985 145.909 16.6932C145.909 15.7992 146.076 15.0114 146.409 14.3295C146.746 13.6477 147.216 13.1155 147.818 12.733C148.425 12.3504 149.133 12.1591 149.943 12.1591C150.436 12.1591 150.913 12.2405 151.375 12.4034C151.837 12.5663 152.252 12.822 152.62 13.1705C152.987 13.5189 153.277 13.9716 153.489 14.5284C153.701 15.0814 153.807 15.7538 153.807 16.5455V17.1477H146.87V15.875H152.142C152.142 15.428 152.051 15.0322 151.87 14.6875C151.688 14.339 151.432 14.0644 151.103 13.8636C150.777 13.6629 150.394 13.5625 149.955 13.5625C149.478 13.5625 149.061 13.6799 148.705 13.9148C148.353 14.1458 148.08 14.4489 147.887 14.8239C147.697 15.1951 147.603 15.5985 147.603 16.0341V17.0284C147.603 17.6117 147.705 18.108 147.909 18.517C148.118 18.9261 148.407 19.2386 148.779 19.4545C149.15 19.6667 149.584 19.7727 150.08 19.7727C150.402 19.7727 150.695 19.7273 150.961 19.6364C151.226 19.5417 151.455 19.4015 151.648 19.2159C151.841 19.0303 151.989 18.8011 152.091 18.5284L153.699 18.8182C153.57 19.2917 153.339 19.7064 153.006 20.0625C152.676 20.4148 152.262 20.6894 151.762 20.8864C151.265 21.0795 150.699 21.1761 150.063 21.1761Z" fill="white"/>
</svg>
