<svg width="24" height="24" viewBox="0 0 24 24" fill="none" xmlns="http://www.w3.org/2000/svg">
<path d="M3.5892 17.376C3.60819 17.3736 3.62722 17.3717 3.6463 17.3702C3.86075 17.3527 4.30147 17.3672 4.53931 17.3672L6.38289 17.3692L11.7753 17.377L17.2018 17.3926L18.7497 17.4042C19.0588 17.4057 20.0207 17.3459 20.2289 17.5647C20.7362 18.0976 20.6321 18.9031 19.7637 18.9355L9.2458 18.9321L5.53761 18.9345C4.9186 18.9345 4.29397 18.9445 3.67693 18.9286C3.24765 18.8933 2.87155 18.8794 2.80822 18.361C2.73997 17.8024 3.01403 17.4377 3.5892 17.376Z" fill="#FFFFFF"/>
<path d="M4.14444 12.166C4.16342 12.1232 4.61317 11.6741 4.68559 11.6002C5.86433 10.3968 7.04603 9.18958 8.24879 8.01128C8.53114 7.73467 8.86693 7.72138 9.18531 7.95566C10.1225 8.76733 10.878 9.7783 11.7566 10.6512C12.0016 10.8951 12.2124 11.1576 12.4726 11.391C12.7708 11.0061 12.9823 10.7475 13.3239 10.3917C13.5185 10.1891 13.8272 9.89113 13.9948 9.6879C14.5674 9.89326 14.6932 10.2406 15.1581 10.5833C14.9302 10.8202 14.745 11.0952 14.5175 11.3309C14.2198 11.6266 13.9092 11.934 13.6228 12.2381C12.8552 13.053 12.6421 13.7319 11.6241 12.6694C10.8608 11.8727 10.1571 10.9871 9.33069 10.253C9.13583 10.0799 8.93366 9.87023 8.76247 9.67459C8.43671 9.90435 8.21769 10.2051 7.93874 10.4844C7.40677 11.0171 6.91072 11.5633 6.36463 12.083C6.12631 12.3098 5.7932 12.7373 5.5464 12.9392C5.28359 13.3085 4.71758 13.735 4.42166 14.108C4.27777 14.2894 4.03121 14.4516 3.79953 14.4374C3.61161 14.4258 3.44588 14.3477 3.31871 14.2014C2.67955 13.4919 3.28231 13.0854 3.76044 12.5704C3.88763 12.4334 4.00606 12.2889 4.14444 12.166Z" fill="#FFFFFF"/>
<path d="M4.14444 12.166C4.1266 12.3091 3.62626 12.7869 3.50122 12.8934C3.97257 12.9625 4.63051 13.6063 5.0912 13.3394C5.21788 13.266 5.42361 12.9547 5.5464 12.9393C5.28359 13.3085 4.71758 13.735 4.42166 14.108C4.27777 14.2895 4.03121 14.4516 3.79953 14.4374C3.61161 14.4258 3.44588 14.3477 3.31871 14.2014C2.67955 13.4919 3.28231 13.0854 3.76044 12.5704C3.88763 12.4334 4.00606 12.2889 4.14444 12.166Z" fill="#FFFFFF"/>
<path d="M15.733 4.01059C16.1433 3.66932 16.492 3.70661 17.0004 3.72273C17.8933 3.75102 18.7772 3.75791 19.6713 3.74816C20.067 3.74385 20.4845 3.80842 20.5314 4.29168C20.5837 5.02628 20.5672 5.77312 20.5671 6.50995C20.5671 7.07015 20.5811 7.64566 20.5513 8.20396C20.5295 8.61074 20.0983 8.87805 19.711 8.8207C19.6834 8.81652 19.656 8.81118 19.6289 8.80469C19.3644 8.59321 19.2256 8.43939 19.1881 8.07484C19.1309 7.51893 19.2186 6.82691 19.1451 6.28279C18.6971 6.73647 18.2807 7.19099 17.8638 7.67322C17.6555 7.91427 17.3881 8.13051 17.1747 8.36962C16.8972 8.67777 16.6643 8.97363 16.3575 9.25612C16.0473 9.05896 15.8118 8.8627 15.5446 8.60913C15.4527 8.52191 15.3347 8.35879 15.2635 8.31311C15.6806 7.78654 16.1775 7.33291 16.6263 6.84002C17.1187 6.29924 17.6435 5.78509 18.1073 5.22271C17.7995 5.19454 17.3737 5.20553 17.0632 5.22039C16.097 5.26663 15.3449 5.26309 15.733 4.01059Z" fill="#FFFFFF"/>
<path d="M15.2635 8.31323C15.3347 8.35891 15.4527 8.52204 15.5446 8.60925C15.8118 8.86282 16.0472 9.05908 16.3575 9.25624C15.9729 9.63082 15.587 10.2118 15.1581 10.5835C14.6932 10.2407 14.5674 9.89339 13.9948 9.68803C14.0406 9.62592 14.2766 9.37601 14.3418 9.30825C14.6631 8.97447 14.9558 8.65957 15.2635 8.31323Z" fill="#FFFFFF"/>
</svg>
