<svg width="24" height="24" viewBox="0 0 24 24" fill="none" xmlns="http://www.w3.org/2000/svg">
<path d="M18.1906 3.03456C18.4794 2.99763 18.7727 3.04398 19.036 3.16816C19.4548 3.36307 19.7039 3.66625 19.8604 4.09668C19.9256 4.27257 19.9646 4.45714 19.976 4.64444C20.0229 5.44546 19.987 6.56398 19.9853 7.39163L19.9894 11.7958L19.9887 15.8762C19.9885 16.6036 19.9948 17.3263 19.9746 18.057C19.9601 18.7201 19.6184 19.4444 18.9555 19.6771C17.9788 20.02 17.2321 19.3472 16.4519 18.8979L13.6141 17.2607C13.1197 16.9815 12.8044 16.7809 12.286 16.5265C12.3035 16.8227 12.3081 17.2976 12.2908 17.5891C12.2258 18.6876 12.5727 19.9658 11.6752 20.7989C10.8751 21.5416 9.85557 21.4058 8.86926 21.3757C8.2235 21.3025 7.65437 20.9755 7.29943 20.4258C7.14343 20.1876 7.04074 19.9185 6.99832 19.637C6.96185 19.3901 6.97149 19.0859 6.97187 18.8324L6.97278 17.6883L6.96991 16.3779C6.96959 16.1537 6.9577 15.703 7.00157 15.5002C6.25602 15.477 5.4525 15.6101 4.79655 15.1881C3.85243 14.5807 3.91296 13.8582 3.90661 12.8579L3.90132 11.3576C3.89997 10.6972 3.87527 9.95979 3.93779 9.30564C3.9624 9.10031 4.06417 8.91575 4.17045 8.74539C4.7964 7.7421 5.60023 7.7827 6.65977 7.77758C7.30736 7.77574 7.95498 7.7791 8.6025 7.7876C8.98307 7.79055 9.37661 7.81084 9.75563 7.77408C10.6916 7.68332 15.2391 4.70635 16.3676 4.01208C16.9572 3.64927 17.4967 3.18403 18.1906 3.03456ZM10.2284 8.97593L10.2385 12.6552C10.239 13.0102 10.2657 13.9754 10.2181 14.2801C10.7415 14.3651 12.881 15.3761 13.3992 15.6638C14.3533 16.1801 15.295 16.7188 16.2236 17.2795C16.8234 17.6455 17.4266 18.0183 18.0283 18.3816C18.2833 18.5355 18.45 18.5466 18.6494 18.3087C18.7033 17.9805 18.6846 17.2105 18.6844 16.8436L18.6794 14.1248L18.6826 8.07656C18.6827 6.93047 18.6888 5.78401 18.6761 4.63805C18.6735 4.41247 18.5374 4.3106 18.3199 4.3188C17.954 4.39975 17.676 4.63514 17.3694 4.83628L16.2036 5.59753C15.6105 5.98865 15.0101 6.36858 14.4027 6.73712C14.0944 6.92413 13.7746 7.09826 13.4653 7.28501C12.4959 7.8703 11.2997 8.64079 10.2284 8.97593ZM8.30004 14.2519L8.93992 14.2549C8.91642 13.2758 8.94196 12.228 8.93426 11.2424C8.92979 10.6707 8.89271 9.57935 8.94291 9.04579L6.78852 9.0379C6.5063 9.03849 6.05854 9.0291 5.78746 9.04861C5.56859 9.0688 5.45847 9.16249 5.30867 9.325C5.24896 9.38978 5.16522 9.54179 5.15999 9.62953C5.1355 10.0411 5.15046 10.4788 5.14767 10.8923C5.14386 11.467 5.1435 12.0417 5.14662 12.6164C5.1478 12.9482 5.14605 13.279 5.16742 13.6073C5.18319 13.8498 5.29842 13.9786 5.47964 14.1267C5.72005 14.323 6.3953 14.2642 6.69073 14.2619C7.22715 14.2552 7.76359 14.2519 8.30004 14.2519ZM10.8209 19.8525C10.8918 19.7814 10.9981 19.6714 11.0146 19.5704C11.0682 19.2408 11.0502 18.7969 11.0513 18.4589L11.0587 16.7819C11.0585 16.4991 11.0448 16.2068 11.0636 15.9263C10.6222 15.817 10.2626 15.5794 9.80543 15.5062C9.39905 15.4411 8.62402 15.5385 8.27155 15.4805C8.23145 15.6261 8.2602 16.7207 8.26064 16.9519L8.26094 18.5041C8.26109 18.7538 8.26119 19.0065 8.2671 19.2648C8.29277 20.3879 9.27669 20.0653 10.0265 20.1259C10.3669 20.1534 10.5648 20.0883 10.8209 19.8525Z" fill="#05070A"/>
</svg>
