<svg width="45" height="50" viewBox="0 0 45 50" fill="none" xmlns="http://www.w3.org/2000/svg">
<path d="M22.2183 4.65186C22.249 4.65013 22.2796 4.64888 22.3104 4.6481C23.0117 4.63171 25.1319 5.92591 25.8989 6.31971C28.298 7.55018 30.7752 8.62166 33.3145 9.52718C34.6683 9.99741 36.0112 10.3383 37.3546 10.8056C37.9801 11.0232 38.8047 11.2254 39.2648 11.6636C39.8071 12.1803 39.9947 12.8109 39.9988 13.5428C40.0062 14.8533 39.9771 16.1539 39.9792 17.4673C39.951 19.8288 40.0694 22.2745 39.7533 24.6239C39.0209 30.0672 36.9238 35.4564 33.0531 39.4408C31.5992 40.8711 29.7728 42.4519 28.0318 43.5125C26.8734 44.2179 23.5788 46.0129 22.2951 46.039C20.875 45.9358 17.97 44.3757 16.7114 43.6242C16.1718 43.3021 14.3505 41.987 13.8697 41.6008C9.92542 38.4324 7.17463 34.1003 5.70202 29.2755C5.55972 28.8093 5.42301 28.1693 5.30991 27.682C5.12768 26.8967 4.8705 25.8974 4.78423 25.1023C4.63453 23.7224 4.47929 22.2201 4.44102 20.8332C4.40434 19.5025 4.45214 18.1269 4.43695 16.786C4.42413 15.6502 4.37394 14.3929 4.4729 13.269C4.53401 12.8294 4.63982 12.4067 4.90466 12.0522C5.45294 11.3182 5.8851 11.2449 6.69561 10.9622C7.65667 10.627 8.6126 10.3635 9.58808 10.0705C11.7623 9.41745 13.8931 8.54227 15.9734 7.63581C17.9086 6.78403 19.7376 5.64334 21.6637 4.76869C21.8205 4.6975 22.0443 4.6719 22.2183 4.65186ZM6.6086 13.2828C6.43093 14.0591 6.4806 16.6417 6.47747 17.5229C6.46839 20.0944 6.4973 22.8927 6.90076 25.4263C7.44981 28.7262 8.64847 31.8839 10.427 34.7157C11.3364 36.1665 12.408 37.4431 13.6476 38.5994C14.3087 39.2161 14.8402 39.8753 15.6361 40.3739C16.4758 41.0014 17.2447 41.6488 18.1945 42.1166C19.56 42.9166 20.7477 43.4994 22.2619 43.9594C23.1452 43.8142 24.0028 43.3347 24.7906 42.9318C28.0983 41.2406 31.0501 38.9929 33.2336 35.9509C36.3883 31.556 37.7037 27.0171 37.9351 21.6624C37.9865 20.4734 37.9471 19.278 37.942 18.088C37.9351 16.4679 38.0197 14.8128 37.9023 13.1981C34.6992 12.0333 31.4951 11.2041 28.3441 9.7983C27.7842 9.54851 22.1683 6.75875 22.2514 6.755C21.8189 7.04251 21.1536 7.32909 20.6824 7.58663C17.6262 9.24105 14.4355 10.6331 11.1446 11.7478C10.1799 12.0837 7.30483 12.7967 6.6086 13.2828Z" fill="black"/>
<path d="M22.0563 15.9469C22.4314 15.94 22.9134 15.9906 23.1734 16.3076C23.6724 16.9161 23.9629 17.6988 24.3127 18.3961C24.6216 19.012 24.9566 19.6035 25.1947 20.2517C25.2634 20.4407 25.8907 20.5404 26.1086 20.5773C27.2372 20.7681 28.388 20.904 29.5126 21.131C29.7734 21.1819 30.2454 21.3598 30.3669 21.6282C30.5954 22.133 30.6183 22.7365 30.2357 23.165C29.373 24.1311 28.4437 25.0047 27.573 25.9632C27.4601 26.0875 27.3676 26.168 27.2233 26.2543C27.3703 27.6689 27.9852 29.6195 27.9533 31.0711C27.9423 31.5757 27.4542 31.8632 27.0726 32.1498C26.9571 32.1562 26.6095 32.1772 26.5213 32.1449C25.2531 31.6801 23.4953 30.674 22.3449 29.9873C22.2379 29.9949 21.8384 30.2499 21.6973 30.3279C20.5286 30.9741 19.306 31.6855 18.0533 32.1538C17.9797 32.1813 17.6186 32.1746 17.5236 32.173C16.7532 31.7976 16.5159 31.2544 16.6269 30.4325C16.8189 29.0097 17.1599 27.633 17.3485 26.2111C17.1896 26.1448 17.0761 26.0948 16.9638 25.959C16.1762 25.0094 15.1825 24.2444 14.3573 23.3427C13.7231 22.6497 13.764 21.4789 14.7493 21.1881C15.4573 20.9791 16.356 20.8817 17.094 20.7833C17.81 20.6928 18.5211 20.5675 19.225 20.4079C19.4644 20.1198 19.6181 19.7004 19.7915 19.3552C20.2334 18.4752 20.6025 17.4996 21.1234 16.6669C21.3804 16.2559 21.5888 16.0456 22.0563 15.9469ZM19.4099 25.7145C19.4123 25.8931 19.4151 26.1241 19.3797 26.2975C19.1558 27.3949 18.9385 28.5164 18.6971 29.6089C19.6979 29.2461 21.4306 27.9818 22.3666 27.8625C23.4617 28.1114 24.7251 29.2607 25.8304 29.593C25.5766 28.4202 25.264 27.2252 25.1313 26.034C25.0605 25.3987 25.5146 25.1339 25.8759 24.7432C26.4126 24.1627 27.4558 23.3963 27.8566 22.7356C26.9238 22.6473 24.7863 22.4525 23.9977 22.175C23.6263 21.6213 22.4409 18.863 22.2468 18.7206C21.7252 19.8035 21.2275 20.9235 20.6487 21.971C20.5745 22.08 20.4447 22.2623 20.3057 22.2887C19.306 22.4789 18.2554 22.6145 17.2414 22.715C16.8378 22.755 16.8473 22.6118 16.8843 23.0972C16.983 23.2133 17.2536 23.3939 17.3951 23.5289C18.097 24.1991 18.9339 24.8645 19.4099 25.7145Z" fill="black"/>
</svg>
