<svg width="24" height="24" viewBox="0 0 24 24" fill="none" xmlns="http://www.w3.org/2000/svg">
<path d="M6.76217 3.0105C6.82166 3.00265 6.9685 3.0015 7.03489 3.00095L14.4182 3.00343L16.5255 3.00337C17.0817 3.00341 17.6377 2.97667 18.1798 3.07317C19.2423 3.2623 19.9989 3.68303 20.66 4.53102C21.3032 5.35576 21.517 6.09962 21.5235 7.13497L21.5226 11.4149L21.5215 13.0362C21.5204 13.3387 21.5236 13.6428 21.5109 13.9445C21.4431 15.5622 20.5908 16.9731 19.0778 17.6178C18.2691 17.9624 17.5821 17.9572 16.7332 17.9572L15.4041 17.9611L13.0678 17.9597C12.7149 17.9592 12.1178 17.9354 11.7858 17.9898C11.4478 18.0936 11.1958 18.3748 10.8999 18.5483C9.87735 19.148 8.90814 19.8462 7.8568 20.3932C7.74449 20.4406 7.59483 20.4705 7.4719 20.4562C6.8616 20.3854 6.69768 19.9661 6.71129 19.4397C6.72589 18.8752 6.69535 18.334 6.719 17.7839C5.93465 17.764 5.0547 17.3511 4.46368 16.8422C3.10183 15.6695 3.11399 14.4233 3.11481 12.7746L3.1157 10.5881L3.11487 8.19063C3.11475 7.45712 3.07006 6.64554 3.23764 5.93094C3.39798 5.24719 3.93571 4.50093 4.45357 4.02624C4.8637 3.65029 5.44348 3.32211 5.97999 3.1781C6.20633 3.11733 6.53114 3.02605 6.76217 3.0105ZM7.94994 16.8191C7.99433 17.0588 7.97361 17.5776 7.97085 17.8467C7.96751 18.1722 7.97833 18.5739 7.96407 18.8945C8.16526 18.7542 8.38625 18.6479 8.59426 18.5184C8.8961 18.3304 9.1868 18.1195 9.49467 17.9412C10.14 17.5674 10.7516 17.1025 11.3942 16.7309C11.4642 16.6904 12.3402 16.7062 12.4901 16.7053C13.4732 16.6925 14.4563 16.6903 15.4394 16.6987L16.8454 16.6946C17.9511 16.6941 18.6414 16.6644 19.4846 15.8125C19.8239 15.4685 20.0638 15.0391 20.1789 14.5698C20.315 13.998 20.2759 12.9191 20.2759 12.2857L20.2705 9.4294L20.2672 7.4887C20.2635 7.17004 20.275 6.55163 20.1841 6.25673C19.8828 5.27943 19.108 4.51248 18.0828 4.33668C17.5883 4.25188 16.9958 4.28675 16.481 4.28698L14.204 4.28312C11.8603 4.26921 9.51646 4.2677 7.17271 4.2786L7.00589 4.28096C5.75461 4.3525 4.6663 5.19599 4.43391 6.45274C4.34632 6.9264 4.37028 7.47314 4.36937 7.9565L4.36736 10.0204L4.36699 12.4476C4.36529 13.7245 4.21554 14.9835 5.30903 15.9087C5.79544 16.3202 6.40768 16.5842 7.05738 16.5545C7.44687 16.5366 7.68633 16.509 7.94994 16.8191Z" fill="#05070A"/>
</svg>
