<svg width="45" height="45" viewBox="0 0 45 45" fill="none" xmlns="http://www.w3.org/2000/svg">
<path d="M31.6325 7.50544C33.0703 7.48802 34.5211 7.53916 35.9593 7.53113C36.8156 7.52635 37.7262 7.49665 38.5694 7.56408C39.1306 7.60893 39.4752 8.50983 39.4457 8.99149C39.4471 10.1664 39.4437 11.3395 39.4454 12.5134L39.4251 21.4026C39.4352 24.1668 39.4251 26.931 39.3942 29.695C39.3793 30.5333 39.4241 31.3793 39.3888 32.2143C39.3736 32.5078 39.2902 32.9079 39.0499 33.1057C38.2813 33.738 37.4227 33.2451 37.3929 32.3C37.367 31.4794 37.3766 30.7539 37.3789 29.9769C37.371 28.5938 37.3718 27.2106 37.3813 25.8275L37.3787 17.2998C37.3764 15.2701 37.393 13.3007 37.3445 11.2707C37.1839 11.5281 36.9276 11.7624 36.7277 11.9936C36.1225 12.6938 35.4519 13.2905 34.8058 13.9515L27.7835 21.0474L16.2807 32.6859C15.2869 33.6844 14.3455 34.762 13.3312 35.7469C12.977 36.0907 12.6734 36.4809 12.3068 36.8205C12.038 37.0696 11.8837 37.1196 11.505 37.121C10.9866 37.1188 10.5183 36.494 10.1848 36.113C9.94951 35.8257 9.63434 35.562 9.38139 35.2837C8.27088 34.0618 7.07055 32.923 5.95674 31.7058C5.30857 30.9974 5.66488 30.1107 6.55227 29.8402C7.49378 30.0862 8.32074 31.2958 8.99441 31.9755C9.82181 32.8103 10.7716 33.7181 11.5365 34.6081C11.9825 34.0239 12.8482 33.2726 13.3691 32.7194C14.1589 31.8807 14.9766 31.0866 15.7871 30.2727L25.2009 20.8441L32.3645 13.5694C33.394 12.5038 34.4332 11.4334 35.4558 10.3606C35.7139 10.0899 35.9444 9.83031 36.2318 9.58634C34.5662 9.6509 32.5738 9.60746 30.8908 9.59546L24.3967 9.59421L18.1597 9.59089C17.2701 9.58746 16.3836 9.63819 15.4962 9.59075C14.4554 9.56028 14.287 8.37478 14.9389 7.74892C15.3107 7.39196 16.6533 7.52349 17.1774 7.52447L20.357 7.51825C24.1155 7.53608 27.874 7.53181 31.6325 7.50544Z" fill="#05070A"/>
</svg>
