<svg width="24" height="24" viewBox="0 0 24 24" fill="none" xmlns="http://www.w3.org/2000/svg">
<g clip-path="url(#clip0_17_323)">
<path d="M8.90592 0.549025C8.92574 0.547433 8.9456 0.546104 8.96547 0.545036C11.2755 0.439947 13.5349 1.24371 15.2596 2.78415C16.9709 4.32894 18.1518 6.61302 18.2692 8.92621C18.3919 11.235 17.5963 13.4987 16.0559 15.2229C16.2571 15.38 16.9175 16.0549 17.106 16.2619C17.4238 16.0905 17.6849 15.9981 18.0524 16.0057C18.2804 16.0105 18.8256 16.158 18.9936 16.2703C19.495 16.6053 19.9905 17.1575 20.416 17.5928L21.6032 18.7913C22.2011 19.4003 22.808 20.0089 23.4087 20.6153C23.4767 20.684 23.7099 20.9944 23.7357 21.0754C23.8531 21.43 23.8819 21.7807 23.8831 22.1495C23.8868 23.1991 22.8825 24.05 21.8571 24.0071C21.0674 23.9741 20.5221 23.3998 20.02 22.8521C19.8674 22.6855 19.6756 22.5118 19.5191 22.3448C19.1005 21.8964 18.627 21.4855 18.218 21.0304C17.62 20.3843 16.9433 19.7798 16.3713 19.1189C15.8678 18.5371 15.9947 17.5679 16.3426 16.9455C16.0205 16.5733 15.7091 16.2716 15.3533 15.931C14.7605 16.4648 14.3545 16.7674 13.6605 17.1561C10.4682 18.9443 6.4345 18.5521 3.64664 16.1849C-2.56929 10.9068 0.820244 1.18649 8.90592 0.549025ZM10.0219 17.2965C14.3707 16.935 17.6045 13.1185 17.247 8.76929C16.8896 4.42007 13.0762 1.18273 8.72667 1.53604C4.37128 1.88983 1.12867 5.70946 1.48657 10.0645C1.84447 14.4195 5.66716 17.6585 10.0219 17.2965ZM22.1113 23.0301C22.8969 22.8476 23.2723 21.9967 22.7677 21.3555C22.1995 20.6336 21.4436 20.0372 20.8205 19.3616C20.1405 18.6604 19.4724 17.9422 18.7614 17.2732C18.5145 17.0408 18.2011 16.9622 17.8707 16.9978C17.5532 17.0959 17.2776 17.2945 17.1184 17.5926C17.0122 17.7915 16.9606 18.0942 17.0315 18.3129C17.0843 18.476 17.2516 18.6658 17.3648 18.7923C17.931 19.4254 18.5704 20.0019 19.1663 20.6068C19.6009 21.0479 21.1056 22.7255 21.5216 22.9258C21.7056 23.0145 21.9085 23.045 22.1113 23.0301Z" fill="black"/>
<path d="M10.7862 5.98831C11.3053 5.98058 11.8245 5.97938 12.3436 5.9847C12.579 5.98829 12.8497 5.98421 13.079 6.02063C13.6801 6.11612 13.6481 6.94597 13.0013 6.9698C12.4482 6.99019 11.9027 6.98293 11.351 6.98401L7.95697 6.98546L6.49749 6.98598C6.11166 6.98677 5.24333 7.09316 5.23901 6.51767C5.23876 6.37991 5.2936 6.24776 5.39131 6.15066C5.46598 6.07723 5.55833 6.03378 5.6619 6.02506C6.19897 5.97985 6.76543 5.99516 7.30339 5.99344L10.7862 5.98831Z" fill="black"/>
<path d="M7.34606 8.96508C8.55729 8.94386 9.81717 8.96873 11.0314 8.96993L12.2771 8.96683C12.5425 8.96604 12.7838 8.96491 13.056 8.9812C13.5171 8.99184 13.6297 9.52476 13.3302 9.81729C13.2063 9.93844 12.9896 9.94718 12.8228 9.94676C12.3214 9.94547 11.8196 9.94392 11.3182 9.94336L7.61386 9.94324C7.00329 9.94352 6.38039 9.9457 5.76984 9.93576C5.02062 9.92355 5.09062 9.02072 5.64431 8.98711C6.1874 8.95413 6.79584 8.96625 7.34606 8.96508Z" fill="black"/>
<path d="M5.78294 11.9389C6.02479 11.9133 6.32793 11.9255 6.57545 11.9275C7.47925 11.9348 8.38853 11.9071 9.29118 11.9431C9.86783 11.966 9.99711 12.3736 9.65432 12.8103C9.56994 12.846 9.46729 12.8679 9.37715 12.8902C8.35752 12.9325 7.30054 12.8618 6.27697 12.8984C6.11629 12.8895 5.52184 12.933 5.41649 12.8009C5.03429 12.3217 5.29921 11.9853 5.78294 11.9389Z" fill="black"/>
</g>
<defs>
<clipPath id="clip0_17_323">
<rect width="24" height="24" fill="white"/>
</clipPath>
</defs>
</svg>
