<svg width="24" height="24" viewBox="0 0 24 24" fill="none" xmlns="http://www.w3.org/2000/svg">
<path d="M11.345 3.30042C11.2867 2.85042 11.3101 2.10458 11.3552 1.65365C11.4059 1.14754 12.16 1.01491 12.5419 1.33038C12.6379 1.40838 12.7075 1.51402 12.7414 1.63296C12.8168 1.89596 12.7633 2.90283 12.7969 3.30007C13.0754 3.36389 13.4052 3.40263 13.6746 3.47351C14.645 3.72881 15.4742 4.00322 16.3059 4.57608C16.6012 4.77945 16.8491 4.89827 17.1499 5.14156C18.8561 6.52734 19.9474 8.52966 20.1874 10.7145C20.6776 10.6711 21.2348 10.687 21.7207 10.7448C22.4495 10.8315 22.5625 11.842 21.9902 12.1659C21.6744 12.3447 20.5305 12.3386 20.1893 12.2557C20.0448 13.4009 19.7186 14.6724 19.1291 15.6771C18.9306 16.0155 18.3525 16.7415 18.1028 17.051C17.6923 17.4305 17.5908 17.6056 17.1048 17.99C16.7424 18.2377 16.2695 18.5627 15.8821 18.77C15.0321 19.2249 13.7687 19.6649 12.7984 19.6493C12.7928 19.9954 12.7797 20.3786 12.7901 20.7214C12.8129 21.4721 12.7327 22.0466 11.8043 22.0392C11.6084 21.9276 11.4147 21.7426 11.3746 21.5202C11.2732 20.958 11.3419 20.2293 11.3423 19.6613C10.741 19.6157 9.74637 19.4028 9.17349 19.2073C8.8748 19.0988 8.56732 18.9341 8.2797 18.7914C8.08674 18.6807 7.82199 18.5661 7.63974 18.4541C7.3725 18.2897 7.00927 18.0065 6.77679 17.7904C6.28397 17.3323 5.60393 16.5938 5.24473 16.0346C4.75292 15.2692 4.31911 14.147 4.16236 13.2606C4.12156 13.0298 4.09172 12.559 4.07764 12.3176C3.85158 12.3152 3.62986 12.3062 3.39642 12.304C2.79849 12.2983 2.46399 12.3782 1.99309 11.97C1.51759 10.4133 3.13217 10.7503 4.00953 10.6788C4.09163 10.3506 4.11284 9.93087 4.20886 9.55463C4.54674 8.19516 5.18885 7.06029 6.11543 6.01078C6.86935 5.15684 8.01445 4.35096 9.06017 3.8862C9.59958 3.64645 10.7558 3.31856 11.345 3.30042ZM11.2308 4.90148C10.7557 5.01084 10.3051 5.08924 9.84471 5.26308C7.3035 6.22266 6.03319 8.12536 5.48567 10.6975C5.75871 10.7323 6.0631 10.8481 6.21422 11.0802C6.69455 11.8179 6.04228 12.1746 5.45063 12.2936C5.52453 12.4741 5.58071 12.74 5.63014 12.9344C5.70553 13.2434 5.79668 13.5484 5.90323 13.8482C6.43413 15.2969 7.15765 16.2142 8.43968 17.0659C9.49413 17.7663 10.0614 18.0284 11.346 18.212C11.3284 17.7255 11.2736 17.0739 12.0096 17.0367C12.2108 17.0265 12.4162 17.1156 12.5551 17.2488C12.806 17.4708 12.7112 18.1701 12.8468 18.2423C13.2344 18.1629 14.2966 17.8933 14.6542 17.7212C15.6473 17.2432 16.8415 16.3307 17.441 15.4125C18.0862 14.4245 18.5012 13.4132 18.5817 12.2426C18.3073 12.2134 18.0735 12.1545 17.8869 11.9239C17.7746 11.7865 17.7218 11.6099 17.7404 11.4334C17.7908 10.9776 18.2276 10.7582 18.6339 10.6941C18.2546 8.62983 17.4523 7.21699 15.7118 5.9558C14.7562 5.26327 13.902 5.13968 12.803 4.87981C12.7797 5.21259 12.7823 5.63276 12.5071 5.87508C12.2478 6.10345 11.7612 6.2133 11.5089 5.90859C11.2875 5.64113 11.3846 5.22642 11.3165 4.92375C11.3134 4.90922 11.2529 4.90519 11.2308 4.90148Z" fill="#FFFFFF"/>
<path d="M11.8248 8.56426C12.4163 8.47402 13.6326 8.91855 14.0582 9.3543C14.7221 10.0339 14.9774 10.5918 14.9791 11.5311C14.9807 12.4315 14.7926 12.9669 14.1461 13.6209C13.6522 14.1394 13.0126 14.4299 12.2985 14.4393C12.0822 14.4472 11.8433 14.4522 11.6305 14.4295C10.0726 14.263 8.91785 12.7164 9.16174 11.1746C9.30997 10.2377 9.79046 9.47749 10.6129 8.9959C10.9088 8.82271 11.489 8.59111 11.8248 8.56426ZM11.9283 10.1424C11.4313 10.1959 11.0013 10.513 10.8043 10.9725C10.6074 11.4317 10.6737 11.9613 10.9772 12.3582C11.281 12.7551 11.7753 12.9576 12.2701 12.8875C13.0178 12.7815 13.5423 12.0958 13.4489 11.3465C13.3554 10.5973 12.679 10.0617 11.9283 10.1424Z" fill="#FFFFFF"/>
</svg>
