<svg width="45" height="45" viewBox="0 0 45 45" fill="none" xmlns="http://www.w3.org/2000/svg">
<path d="M15.3088 9.68361C15.8124 9.46007 17.2435 8.87152 17.6249 8.61865C18.2027 8.23556 18.1185 5.97173 18.754 5.296C18.9834 4.99622 19.4912 4.67176 19.8868 4.65378C21.293 4.58528 22.76 4.55854 24.1628 4.63707C24.5108 4.65654 25.1848 5.05887 25.3489 5.32809C25.7856 6.04411 26.0317 7.7239 26.1267 8.54263C26.9328 8.87215 27.7978 9.34212 28.6495 9.68844C29.8984 9.30396 31.2485 7.84401 32.5225 8.4067C33.3722 8.78197 35.3063 10.917 35.8057 11.6893C36.5705 12.8719 34.8908 14.5585 34.4978 15.6459C34.8171 16.3336 35.1433 17.2525 35.467 17.8713C36.5957 18.1531 38.2422 18.2486 38.9163 19.1657C39.5904 20.0829 39.4623 23.8872 38.9163 24.866C38.3703 25.8448 36.8169 25.6978 35.4421 26.0929C35.1739 26.8741 34.7757 27.6039 34.5109 28.3419C34.8412 29.2048 35.5371 29.9037 35.8512 30.7756C36.0314 31.2755 36.0346 31.8477 35.799 32.3313C35.5683 32.8047 33.451 34.9154 32.9438 35.3044C32.7905 35.422 32.6193 35.5078 32.4362 35.569C31.4056 35.9136 30.4241 35.2257 29.5757 34.7296C29.292 34.5637 28.9976 34.417 28.7042 34.2692C28.0529 34.6036 26.8188 35.1872 26.1537 35.4146C26.0163 36.1683 25.8133 37.811 25.504 38.4402C25.2892 38.8771 24.8865 39.1576 24.4344 39.3075C23.7743 39.526 20.663 39.5062 19.8779 39.3935C19.685 39.3656 19.5065 39.3093 19.3326 39.2205C18.0448 38.5645 18.252 36.6576 17.8607 35.4602C17.6956 35.3608 17.4161 35.2575 17.2353 35.1671C16.6576 34.8781 15.8873 34.596 15.346 34.2678C14.6236 34.6563 13.903 35.0925 13.1673 35.4499C12.4393 35.8036 11.4632 35.7423 10.8612 35.1502C10.077 34.379 9.26802 33.5583 8.50224 32.7639C7.04146 31.1714 8.86735 29.8024 9.49399 28.3931C9.23569 27.7214 8.99076 27.0361 8.67791 26.3876C8.47956 25.9568 8.08272 25.9538 7.67551 25.8687C7.02723 25.7333 6.33565 25.6748 5.73671 25.3702C4.50058 24.7418 4.55706 23.2878 4.58964 22.105C4.60546 21.5303 4.55369 20.918 4.63742 20.3492C4.68293 20.0372 4.77582 19.7339 4.9129 19.4498C5.55028 18.1615 6.94508 18.3116 8.12743 17.9497C8.43193 17.8564 8.61284 17.668 8.75177 17.388C9.03366 16.8201 9.22087 16.2106 9.49984 15.6407C9.1428 14.837 8.55105 14.1677 8.16159 13.3581C7.43649 11.8508 8.70278 11.0076 9.61813 10.0416C10.0196 9.61789 10.4867 9.07652 10.9282 8.71249C12.0967 7.74882 13.4006 8.66903 14.455 9.29066C14.7339 9.45391 15.0216 9.57217 15.3088 9.68361ZM19.9731 6.41552C19.8895 6.86194 19.8098 7.30907 19.734 7.75685C19.5959 8.55213 19.4345 9.58689 18.6639 10.0339C17.8046 10.5323 16.5353 11.0611 15.6067 11.3777C14.8499 11.6358 12.8372 10.3654 12.2149 9.93216C11.7144 10.2661 9.93182 12.0403 9.62818 12.5332C10.1534 13.7735 11.5332 14.8373 10.9161 16.462C9.74714 19.5391 9.596 19.4641 6.44056 20.063C6.31905 20.5961 6.25979 23.4422 6.45527 23.8442C6.89965 24.1145 8.67617 24.1542 9.24568 24.5386C10.1558 25.153 10.6475 26.778 11.0079 27.7749C11.2614 28.4763 10.9115 29.4332 10.5238 30.0014C10.2789 30.3989 9.78336 31.09 9.65003 31.4963C9.97214 31.8562 11.9095 33.8503 12.2354 34.037C13.0716 33.5181 14.7688 32.3211 15.7796 32.6601C16.6955 32.9673 17.9268 33.5253 18.7606 34.0245C19.6163 34.5369 19.6908 36.04 19.8367 36.9096C19.8706 37.1114 19.9123 37.6369 20.1536 37.6575C20.5243 37.7073 20.9168 37.6915 21.2912 37.6908L23.3033 37.6845L23.9264 37.6796C24.3763 36.6105 24.3496 35.458 24.7678 34.4974C25.0697 33.8043 27.217 33.1082 27.9182 32.7842C29.2617 32.1634 30.6504 33.49 31.7704 34.0453C32.27 33.6416 33.9952 31.9457 34.2589 31.3907C33.954 30.5022 33.1559 29.8023 32.8873 28.8948C32.6076 27.8679 33.2872 26.9124 33.6828 26.0196C34.0754 25.1333 34.3616 24.7073 35.2783 24.3586C35.6352 24.2228 37.5301 23.9397 37.5717 23.6837C37.7251 22.7412 37.7596 21.0175 37.6009 20.0829C37.2048 19.9981 36.8079 19.9169 36.4102 19.8395C33.7044 19.3345 34.247 18.6748 33.0549 16.5432C32.091 14.8199 34.682 12.9455 34.1872 12.3387C33.8038 11.8687 32.2906 10.2247 31.8283 9.89159C31.0336 10.3586 29.179 11.7731 28.218 11.31C27.4146 10.9228 25.16 10.2682 24.8008 9.50721C24.5585 8.99417 24.0469 6.98098 23.9785 6.40015C23.1749 6.33471 21.6903 6.36744 20.8522 6.38757L19.9731 6.41552Z" fill="#05070A"/>
<path d="M21.4896 15.8508C24.8952 15.5893 27.8663 18.1422 28.1203 21.5485C28.3744 24.9547 25.8149 27.9201 22.4081 28.1667C19.0119 28.4125 16.0576 25.8627 15.8044 22.467C15.5511 19.0713 18.0944 16.1115 21.4896 15.8508ZM22.1298 26.4332C24.5789 26.3373 26.4842 24.2704 26.3811 21.8216C26.2779 19.3729 24.2054 17.4736 21.7569 17.584C19.3187 17.694 17.4291 19.756 17.5318 22.1945C17.6346 24.6331 19.6909 26.5288 22.1298 26.4332Z" fill="#05070A"/>
</svg>
