<svg width="93" height="93" viewBox="0 0 93 93" fill="none" xmlns="http://www.w3.org/2000/svg">
<path d="M32.9067 54.2991C31.9934 54.2991 31.1837 54.1177 30.4776 53.7549C29.778 53.3857 29.2274 52.874 28.8258 52.2197C28.4307 51.5655 28.2331 50.8076 28.2331 49.9461C28.2331 49.1429 28.421 48.4077 28.7967 47.7405C29.1724 47.0733 29.7327 46.5486 30.4776 46.1664L30.4387 46.866C29.8428 46.4968 29.3829 46.0369 29.059 45.4863C28.7416 44.9292 28.5829 44.3073 28.5829 43.6207C28.5829 42.824 28.7675 42.1341 29.1367 41.5511C29.506 40.9681 30.0145 40.5179 30.6622 40.2005C31.3165 39.8831 32.0646 39.7244 32.9067 39.7244C33.7488 39.7244 34.4937 39.8831 35.1415 40.2005C35.7892 40.5179 36.2977 40.9681 36.667 41.5511C37.0362 42.1341 37.2208 42.824 37.2208 43.6207C37.2208 44.3073 37.0686 44.926 36.7641 45.4766C36.4597 46.0272 35.9933 46.4903 35.365 46.866L35.3358 46.1859C36.0743 46.5486 36.6346 47.0668 37.0167 47.7405C37.3989 48.4077 37.59 49.1429 37.59 49.9461C37.59 50.8076 37.3892 51.5655 36.9876 52.2197C36.586 52.874 36.0322 53.3857 35.3261 53.7549C34.62 54.1177 33.8136 54.2991 32.9067 54.2991ZM32.9067 52.3655C33.6581 52.3655 34.267 52.1614 34.7334 51.7534C35.1998 51.3388 35.433 50.7364 35.433 49.9461C35.433 49.1558 35.1998 48.5534 34.7334 48.1389C34.2735 47.7178 33.6646 47.5073 32.9067 47.5073C32.1488 47.5073 31.5367 47.7178 31.0703 48.1389C30.6104 48.5534 30.3804 49.1558 30.3804 49.9461C30.3804 50.7364 30.6136 51.3388 31.08 51.7534C31.5464 52.1614 32.1553 52.3655 32.9067 52.3655ZM32.9067 45.564C33.548 45.564 34.0662 45.4053 34.4613 45.0879C34.8629 44.764 35.0637 44.275 35.0637 43.6207C35.0637 42.9665 34.8629 42.4774 34.4613 42.1535C34.0662 41.8232 33.548 41.658 32.9067 41.658C32.2654 41.658 31.744 41.8232 31.3424 42.1535C30.9408 42.4774 30.7399 42.9665 30.7399 43.6207C30.7399 44.275 30.9408 44.764 31.3424 45.0879C31.744 45.4053 32.2654 45.564 32.9067 45.564ZM40.4576 54.0076L45.3741 41.9495H39.1459V40.0159H47.5603V41.9495L42.6535 54.0076H40.4576ZM51.261 54.0076L49.9007 52.6473L62.5418 40.0159L63.9021 41.3859L51.261 54.0076ZM60.9871 54.2991C60.3459 54.2991 59.7596 54.1436 59.2285 53.8327C58.7038 53.5153 58.2827 53.0942 57.9653 52.5695C57.6479 52.0384 57.4892 51.4489 57.4892 50.8012C57.4892 50.1663 57.6512 49.5834 57.9751 49.0522C58.2989 48.521 58.7265 48.0967 59.2576 47.7793C59.7888 47.4619 60.3653 47.3032 60.9871 47.3032C61.6284 47.3032 62.2147 47.4619 62.7458 47.7793C63.277 48.0903 63.698 48.5113 64.009 49.0425C64.3264 49.5672 64.4851 50.1534 64.4851 50.8012C64.4851 51.4489 64.3264 52.0384 64.009 52.5695C63.698 53.0942 63.277 53.5153 62.7458 53.8327C62.2147 54.1436 61.6284 54.2991 60.9871 54.2991ZM60.9871 52.5404C61.3046 52.5404 61.5928 52.4627 61.8519 52.3072C62.1175 52.1453 62.328 51.9315 62.4835 51.6659C62.6454 51.4003 62.7264 51.1121 62.7264 50.8012C62.7264 50.4902 62.6454 50.202 62.4835 49.9364C62.328 49.6708 62.1175 49.4603 61.8519 49.3048C61.5928 49.1429 61.3046 49.0619 60.9871 49.0619C60.6762 49.0619 60.388 49.1429 60.1224 49.3048C59.8633 49.4603 59.6528 49.6708 59.4908 49.9364C59.3354 50.202 59.2576 50.4902 59.2576 50.8012C59.2576 51.1121 59.3354 51.4003 59.4908 51.6659C59.6528 51.9315 59.8633 52.1453 60.1224 52.3072C60.388 52.4627 60.6762 52.5404 60.9871 52.5404ZM52.8156 46.7203C52.1744 46.7203 51.5881 46.5648 51.057 46.2539C50.5258 45.9365 50.1015 45.5154 49.7841 44.9907C49.4732 44.4596 49.3177 43.8701 49.3177 43.2223C49.3177 42.5875 49.4797 42.0046 49.8036 41.4734C50.1274 40.9422 50.555 40.5179 51.0861 40.2005C51.6173 39.8831 52.1938 39.7244 52.8156 39.7244C53.4569 39.7244 54.0399 39.8831 54.5646 40.2005C55.0958 40.5115 55.52 40.9325 55.8374 41.4637C56.1549 41.9884 56.3136 42.5746 56.3136 43.2223C56.3136 43.8701 56.1549 44.4596 55.8374 44.9907C55.52 45.5154 55.0958 45.9365 54.5646 46.2539C54.0399 46.5648 53.4569 46.7203 52.8156 46.7203ZM52.8156 44.9616C53.1266 44.9616 53.4148 44.8839 53.6804 44.7284C53.946 44.5665 54.1565 44.3527 54.312 44.0871C54.4739 43.8215 54.5549 43.5333 54.5549 43.2223C54.5549 42.9114 54.4739 42.6232 54.312 42.3576C54.1565 42.092 53.946 41.8815 53.6804 41.726C53.4148 41.5641 53.1266 41.4831 52.8156 41.4831C52.5047 41.4831 52.2165 41.5641 51.9509 41.726C51.6918 41.8815 51.4813 42.092 51.3193 42.3576C51.1574 42.6232 51.0764 42.9114 51.0764 43.2223C51.0764 43.5333 51.1574 43.8215 51.3193 44.0871C51.4813 44.3527 51.6918 44.5665 51.9509 44.7284C52.21 44.8839 52.4982 44.9616 52.8156 44.9616Z" fill="#05070A"/>
<circle cx="46.5" cy="46.5" r="42.5" stroke="#E3E7EC" stroke-width="8"/>
<path d="M60.9752 6.49256C61.7183 4.43889 63.9944 3.36107 65.9775 4.27587C70.9596 6.57407 75.5056 9.74052 79.3978 13.6369C84.2236 18.4678 87.9263 24.3022 90.2427 30.7256C92.559 37.149 93.4323 44.0038 92.8005 50.8028C92.1687 57.6018 90.0472 64.1782 86.5868 70.0648C83.1264 75.9513 78.4121 81.0035 72.7787 84.8625C67.1454 88.7214 60.7313 91.2922 53.9922 92.3924C47.2531 93.4926 40.3544 93.0951 33.7863 91.2282C28.4887 89.7224 23.511 87.2904 19.0798 84.0551C17.316 82.7672 17.1507 80.2542 18.5837 78.6062C20.0167 76.9581 22.5041 76.8026 24.2901 78.0595C27.8286 80.5497 31.7686 82.4326 35.9487 83.6207C41.3997 85.1702 47.125 85.5 52.7179 84.587C58.3108 83.6739 63.634 81.5403 68.3092 78.3377C72.9844 75.1351 76.8969 70.9422 79.7688 66.0568C82.6406 61.1715 84.4012 55.7136 84.9256 50.071C85.45 44.4283 84.7252 38.7395 82.8028 33.4086C80.8804 28.0777 77.8075 23.2356 73.8025 19.2263C70.7313 16.1519 67.1698 13.6251 63.273 11.7445C61.3061 10.7952 60.2322 8.54622 60.9752 6.49256Z" fill="#3158E8"/>
</svg>
