<svg width="24" height="25" viewBox="0 0 24 25" fill="none" xmlns="http://www.w3.org/2000/svg">
<g clip-path="url(#clip0_17_303)">
<path d="M11.6 6.21123C14.6733 6.14003 17.218 8.58271 17.2725 11.6564C17.3271 14.7301 14.8706 17.2615 11.7967 17.2994C8.74624 17.3369 6.23836 14.9033 6.18424 11.8531C6.13012 8.80291 8.55009 6.28188 11.6 6.21123ZM11.8672 16.3335C14.3998 16.2573 16.3898 14.1403 16.3094 11.6078C16.229 9.07534 14.1086 7.08883 11.5763 7.17346C9.04992 7.25788 7.06908 9.37218 7.14933 11.8987C7.22955 14.4252 9.34057 16.4096 11.8672 16.3335Z" fill="black"/>
<path d="M11.6642 9.36552C12.997 9.31536 14.1195 10.3522 14.1751 11.6847C14.2306 13.0173 13.1983 14.144 11.866 14.2049C10.526 14.2662 9.39151 13.2267 9.33564 11.8865C9.27978 10.5463 10.3239 9.41598 11.6642 9.36552ZM11.8665 13.2618C12.6782 13.202 13.2886 12.4967 13.2313 11.6848C13.1739 10.8729 12.4705 10.2604 11.6584 10.3152C10.8428 10.3704 10.2271 11.0775 10.2847 11.8929C10.3423 12.7083 11.0512 13.3218 11.8665 13.2618Z" fill="black"/>
<path d="M18.7433 14.0489C18.8965 14.0418 19.0502 14.0473 19.2026 14.0653C19.979 14.1507 20.6947 14.5957 21.1779 15.1998C21.6947 15.8403 21.9282 16.6637 21.8245 17.48C21.747 18.1412 21.4142 18.8782 20.8826 19.2963C21.3991 19.4743 22.0462 19.924 22.4389 20.2989C23.3284 21.1479 23.8253 22.2612 23.811 23.4954C23.8054 23.9747 23.8841 24.4109 23.2428 24.4901C22.7342 24.5421 22.2061 24.5166 21.6941 24.5156L18.8386 24.5135C18.2601 24.5154 14.4278 24.5611 14.1869 24.473C14.0377 24.4186 13.8869 24.2665 13.8261 24.1207C13.623 23.6344 13.9145 22.3051 14.12 21.8278C14.6253 20.6836 15.5615 19.785 16.7254 19.3271L16.7177 19.3205C16.1904 18.8612 15.8401 18.0382 15.7954 17.3428C15.7405 16.5301 16.014 15.7293 16.5547 15.1201C17.168 14.4245 17.8286 14.1074 18.7433 14.0489ZM14.7305 23.5377C15.1047 23.5254 15.4866 23.5255 15.8613 23.5289C17.2848 23.5419 18.7112 23.5159 20.1341 23.53C21.0167 23.5267 22.0004 23.503 22.8738 23.5333C22.811 22.4251 22.5351 21.6797 21.701 20.882C21.3214 20.519 20.3614 20.0094 19.834 20.0418C19.5408 20.0598 19.2222 20.1948 18.8078 20.1948C18.513 20.1948 17.8067 20.0088 17.6996 20.0178C16.0527 20.4159 14.8872 21.5508 14.7781 23.2235C14.7723 23.3121 14.7517 23.4523 14.7305 23.5377ZM18.9438 19.2265C20.0981 19.1555 20.9776 18.1641 20.9104 17.0095C20.8432 15.8549 19.8546 14.9723 18.6998 15.0357C17.5397 15.0995 16.6521 16.0936 16.7196 17.2535C16.7871 18.4134 17.7841 19.2978 18.9438 19.2265Z" fill="black"/>
<path d="M11.684 0.7536C12.1255 0.728888 12.2131 0.98427 12.2208 1.38147C12.2254 1.61692 12.2282 1.84749 12.2083 2.08308L12.2585 2.08482C16.787 2.25876 20.6687 5.934 21.3679 10.3489C21.413 10.6334 21.4663 11.0341 21.4553 11.3172C21.7527 11.3158 22.5135 11.2561 22.6352 11.4866C23.1227 12.41 21.7936 12.2855 21.4552 12.2589C21.4455 12.3959 21.4348 12.5327 21.423 12.6695C21.3906 13.0455 21.3896 14.5472 20.4106 13.6049C20.3041 13.5024 20.4838 12.5181 20.5146 12.2617C20.4876 12.2649 20.4606 12.267 20.4335 12.268C20.0949 12.2779 19.4057 12.3388 19.1363 12.1031C18.9836 11.9694 18.9629 11.613 19.1152 11.4826C19.398 11.2406 20.1443 11.3183 20.503 11.3226C20.3086 9.30075 19.7142 7.79212 18.4108 6.2066C17.234 4.77515 15.6872 3.78466 13.8875 3.31584C13.3209 3.16826 12.7944 3.11479 12.2181 3.05104C12.2204 3.07659 12.2219 3.10223 12.2226 3.12787C12.2292 3.39105 12.2766 4.17084 12.0779 4.2919C11.0501 4.91808 11.2828 3.34615 11.294 3.03333C10.8339 3.11843 10.37 3.14313 9.90451 3.24794C6.63151 3.98484 4.09304 6.47116 3.21575 9.696C3.06704 10.2426 3.00809 10.7509 2.94603 11.3157C3.48666 11.327 4.80052 11.1079 4.36606 12.0619C4.31213 12.1803 4.13586 12.2278 4.02549 12.2549C3.70958 12.2776 3.28002 12.2638 2.95468 12.261C3.00116 12.5845 3.01135 12.879 3.07295 13.2209C3.31913 14.5939 3.88081 15.891 4.71371 17.01C5.99666 18.7413 7.85884 19.9541 9.96102 20.4274C10.4233 20.53 10.8143 20.5479 11.2752 20.612C11.2668 20.4137 11.2872 20.1531 11.2672 19.9198C11.2059 19.4133 11.6342 18.9877 12.0793 19.3447C12.2688 19.4967 12.2251 20.3805 12.2068 20.6118C12.5466 20.5855 12.8733 20.5546 13.2076 20.496C13.376 20.4683 13.835 20.3666 13.8614 20.6333C13.8825 20.847 13.6134 21.2411 13.4915 21.4051C13.081 21.4926 12.6283 21.5696 12.2077 21.5621C12.2094 21.5817 12.2108 21.6013 12.2116 21.621C12.2225 21.8459 12.2815 22.613 12.0726 22.7944C11.7853 23.0439 11.3357 22.9388 11.2887 22.5115C11.256 22.2149 11.2725 21.8861 11.2787 21.5685C11.261 21.5686 11.2432 21.5685 11.2255 21.5681C10.9667 21.5631 10.6446 21.5034 10.3834 21.4698C8.39645 21.2138 6.32017 20.1272 4.90869 18.7104C3.31946 17.1152 1.9907 14.5599 2.03538 12.2575C1.70101 12.2907 1.06818 12.3326 0.809109 12.1064C0.648541 11.9662 0.653999 11.6094 0.816881 11.4742C1.09476 11.2436 1.68237 11.3179 2.02949 11.3253C1.95987 9.49865 3.04517 7.08822 4.20341 5.69613C5.99952 3.53735 8.48598 2.30433 11.2865 2.08032C11.2606 1.84013 11.2411 1.1486 11.3671 0.952404C11.4543 0.816495 11.5383 0.793765 11.684 0.7536Z" fill="black"/>
</g>
<defs>
<clipPath id="clip0_17_303">
<rect width="24" height="24.4688" fill="white"/>
</clipPath>
</defs>
</svg>
