<svg width="11" height="9" viewBox="0 0 11 9" fill="none" xmlns="http://www.w3.org/2000/svg">
<path d="M0.4375 3.93297C0.321468 3.93297 0.210188 3.97906 0.128141 4.06111C0.0460935 4.14316 -1.96507e-07 4.25444 -1.91435e-07 4.37047C-1.86363e-07 4.4865 0.0460935 4.59778 0.128141 4.67983C0.210188 4.76188 0.321468 4.80797 0.4375 4.80797L8.92237 4.80797L5.39525 7.98247C5.35148 8.02056 5.31572 8.06698 5.29006 8.11902C5.2644 8.17106 5.24935 8.22769 5.24578 8.2856C5.24222 8.34352 5.25021 8.40156 5.26929 8.45636C5.28836 8.51116 5.31815 8.56161 5.35692 8.60478C5.39568 8.64796 5.44265 8.68299 5.49508 8.70784C5.54751 8.73269 5.60437 8.74687 5.66233 8.74954C5.72029 8.75221 5.7782 8.74332 5.8327 8.72339C5.88719 8.70347 5.93718 8.6729 5.97975 8.63347L10.3547 4.69597C10.4004 4.65494 10.437 4.60475 10.462 4.54867C10.487 4.49259 10.4999 4.43188 10.4999 4.37047C10.4999 4.30907 10.487 4.24835 10.462 4.19227C10.437 4.13619 10.4004 4.086 10.3547 4.04497L5.97975 0.107471C5.89311 0.0320699 5.78029 -0.00623538 5.66565 0.000826588C5.551 0.0078876 5.44374 0.0597494 5.367 0.145214C5.29027 0.230678 5.25022 0.342891 5.25551 0.457628C5.26079 0.572366 5.31098 0.680422 5.39525 0.758471L8.92237 3.93297L0.4375 3.93297Z" fill="white"/>
</svg>
